<?xml version="1.0" encoding="UTF-8" standalone="no"?>
<!-- Created with Inkscape (http://www.inkscape.org/) -->

<svg
   xmlns:dc="http://purl.org/dc/elements/1.1/"
   xmlns:cc="http://creativecommons.org/ns#"
   xmlns:rdf="http://www.w3.org/1999/02/22-rdf-syntax-ns#"
   xmlns:svg="http://www.w3.org/2000/svg"
   xmlns="http://www.w3.org/2000/svg"
   xmlns:xlink="http://www.w3.org/1999/xlink"
   xmlns:sodipodi="http://sodipodi.sourceforge.net/DTD/sodipodi-0.dtd"
   xmlns:inkscape="http://www.inkscape.org/namespaces/inkscape"
   id="svg3387"
   version="1.1"
   inkscape:version="0.91 r13725"
   width="2617.7214"
   height="2470.6194"
   viewBox="0 0 2617.7214 2470.6194"
   sodipodi:docname="logo_notext.svg">
  <metadata
     id="metadata3393">
    <rdf:RDF>
      <cc:Work
         rdf:about="">
        <dc:format>image/svg+xml</dc:format>
        <dc:type
           rdf:resource="http://purl.org/dc/dcmitype/StillImage" />
        <dc:title />
      </cc:Work>
    </rdf:RDF>
  </metadata>
  <defs
     id="defs3391" />
  <sodipodi:namedview
     pagecolor="#ffffff"
     bordercolor="#666666"
     borderopacity="1"
     objecttolerance="10"
     gridtolerance="10"
     guidetolerance="10"
     inkscape:pageopacity="0"
     inkscape:pageshadow="2"
     inkscape:window-width="1251"
     inkscape:window-height="997"
     id="namedview3389"
     showgrid="false"
     fit-margin-top="0"
     fit-margin-left="0"
     fit-margin-right="0"
     fit-margin-bottom="0"
     inkscape:zoom="0.3"
     inkscape:cx="1325.7321"
     inkscape:cy="1408.016"
     inkscape:window-x="1280"
     inkscape:window-y="0"
     inkscape:window-maximized="0"
     inkscape:current-layer="svg3387" />
  <image
     sodipodi:absref="/Users/jolibri/Google Drive/peachcobbleratl/logo/bg transparent/logo_notext.png"
     xlink:href="bg transparent/logo_notext.png"
     width="2811.25"
     height="2811.25"
     preserveAspectRatio="none"
     id="image3395"
     x="-75.595695"
     y="-153.89305" />
  <g
     id="g3417"
     transform="translate(-75.595695,-153.89304)">
    <path
       style="fill:#fa914c"
       d="m 1635.625,2623.7069 c -50.4139,-3.4008 -98.0415,-10.3013 -150.625,-21.8233 -10.6562,-2.335 -26.125,-5.1565 -34.375,-6.2701 -96.1676,-12.9809 -217.8846,-57.8454 -328.125,-120.9459 -202.45268,-115.882 -363.57948,-281.4521 -454.59666,-467.133 -49.95481,-101.9111 -78.32718,-206.1536 -86.76563,-318.7846 -2.10387,-28.0812 -0.77347,-89.7006 2.52245,-116.8305 14.63202,-120.4411 57.89215,-239.9167 128.78205,-355.6695 34.03401,-55.5725 75.20941,-109.1019 125.05779,-162.5792 9.99729,-10.7251 12.3803,-13.8988 10,-13.3179 -1.71875,0.4194 -11.5625,1.7772 -21.875,3.0173 -23.40368,2.8144 -110.58758,3.1725 -138.75,0.5698 -92.88786,-8.5843 -167.74149,-29.0222 -239.79411,-65.47276 C 294.14096,901.09667 172.7579,751.05776 84.471631,530.25397 72.908615,501.3349 72.849774,499.91588 83.090167,496.9389 c 11.195894,-3.25472 14.065639,-2.69492 25.747423,5.0226 37.14097,24.53706 127.37767,59.62138 201.78741,78.45558 110.58705,27.99121 197.49597,30.36132 259.71366,7.08269 8.61068,-3.22166 14.49805,-7.36642 29.84974,-21.01446 60.39565,-53.69324 143.18649,-94.36441 227.9366,-111.97431 81.3743,-16.90846 166.38653,-12.99443 234.3574,10.79001 19.4675,6.81206 45.5997,18.89471 60.0176,27.75005 6.5313,4.01144 17.7813,10.6684 25,14.79325 52.6437,30.08102 97.3346,61.27859 140,97.73043 20.5784,17.5814 49.3801,45.10877 58.5317,55.94202 4.5889,5.43188 14.1657,15.60962 21.282,22.61719 11.5389,11.36267 35.5515,40.75196 37.4267,45.80697 1.0551,2.84437 11.8221,18.91322 12.3316,18.40379 0.5177,-0.51782 -27.5619,-70.27961 -43.6096,-108.34471 -16.1267,-38.25204 -31.6548,-73.0656 -36.7259,-82.33835 -4.6355,-8.47615 -9.8596,-27.52674 -8.7492,-31.9056 1.0771,-4.2482 9.6257,-12.16744 16.5942,-15.3726 24.9346,-11.46869 70.8179,-7.40956 85.1893,7.53641 l 3.8031,3.95514 0.6731,26.875 c 1.4114,56.35087 9.536,110.01519 26.9676,178.125 7.338,28.67176 9.8042,36.84401 9.9562,32.99402 0.8993,-22.76906 4.5662,-49.05968 9.4806,-67.97409 10.7211,-41.2637 33.3577,-72.67704 55.3811,-76.85369 7.9243,-1.50279 11.6358,-3.36369 25.2175,-12.64345 48.1634,-32.9078 157.4031,-152.11956 244.0125,-266.28715 l 11.9591,-15.76438 -1.1944,-6.73562 c -0.6569,-3.7046 -3.9507,-19.41663 -7.3195,-34.9156 -3.3687,-15.49898 -6.7116,-33.35835 -7.4286,-39.6875 -2.3931,-21.12553 1.6521,-41.16193 13.4784,-66.75986 6.6759,-14.44974 11.231,-17.68404 25.7744,-18.3005 16.4282,-0.69635 34.2622,5.32602 53.3507,18.01602 9.6509,6.41589 12.7976,10.22361 12.6375,15.29226 -0.059,1.85325 -4.037,11.52579 -8.8411,21.49454 -10.8364,22.48609 -16.2818,38.0277 -23.4314,66.875 -7.5017,30.26751 -7.7655,34.40364 -3.7224,58.35318 4.6558,27.5784 5.5999,30.13143 17.064,46.14643 84.8304,118.50554 234.3707,207.25887 342.4108,203.22354 9.9687,-0.37234 22.7836,-1.6429 28.4774,-2.82347 l 10.3525,-2.1465 9.8372,-10.39242 c 18.7146,-19.77071 35.1501,-43.99366 52.6878,-77.65213 5.0986,-9.78525 9.5513,-17.79467 9.8951,-17.79869 0.969,-0.0113 21.3725,31.64205 29.3385,45.51485 31.6659,55.1469 72.7721,154.59672 109.9582,266.02675 49.1545,147.29312 85.2383,294.09556 79.7332,324.38416 l -1.1263,6.1963 10.4983,15.484 c 69.1132,101.9354 110.9321,256.0726 121.5426,447.984 4.253,76.9261 1.9849,168.3286 -5.6404,227.2855 -1.5631,12.0863 -1.6451,16.6126 -0.4489,24.7935 2.1658,14.8121 0.8168,54.3883 -2.4431,71.671 -14.2626,75.6149 -59.8276,158.8779 -121.9785,222.8965 -26.9825,27.7934 -50.9242,46.7463 -72.5915,57.4653 -16.1235,7.9763 -22.2514,9.6356 -35.5921,9.6369 -10.6374,0 -12.6048,-0.3743 -18.877,-3.6035 -3.8511,-1.9826 -8.1784,-4.5138 -9.6161,-5.625 l -2.6142,-2.0202 4.3412,-17.5 c 5.4535,-21.9849 10.9377,-53.8954 13.8563,-80.625 3.0679,-28.0971 3.0612,-96.3905 -0.013,-126.25 -11.746,-114.1069 -44.7487,-222.9643 -102.6961,-338.737 -56.8946,-113.6695 -131.7498,-220.7623 -228.0877,-326.3166 -7.2428,-7.9358 -19.5705,-21.717 -27.395,-30.625 -81.3655,-92.6338 -204.6143,-192.5327 -324.5238,-263.04183 -20.1801,-11.86632 -35.625,-20.38296 -35.625,-19.64443 0,0.30813 5.4844,4.67325 12.1875,9.70023 58.1718,43.62583 141.8518,114.80363 212.1311,180.43773 31.3584,29.2858 110.58,108.9358 136.24,136.9769 68.7605,75.1409 112.4942,131.8716 134.4255,174.375 4.9665,9.625 12.3455,23.7402 16.3979,31.3672 4.0524,7.627 7.368,14.421 7.368,15.0978 0,0.6767 5.7268,10.749 12.7261,22.3827 63.5994,105.7097 118.4394,298.1354 134.0969,470.5273 5.003,55.0837 6.3943,128.3625 3.2988,173.75 -7.2798,106.7385 -29.3169,196.5172 -67.0412,273.125 -18.4931,37.5544 -42.8458,75.5632 -52.2327,81.5226 -17.0976,10.8549 -42.368,17.585 -70.2229,18.7021 -27.8912,1.1185 -45.8154,-1.0333 -105.625,-12.6807 -69.3359,-13.5026 -96.6861,-12.3654 -118.125,4.9119 -16.1631,13.0256 -62.2575,31.4918 -110.625,44.3186 -32.6595,8.661 -73.2611,15.791 -111.25,19.5364 -24.1232,2.3783 -94.822,3.4271 -119.375,1.771 z"
       id="path3407"
       inkscape:connector-curvature="0" />
  </g>
  <path
     inkscape:connector-curvature="0"
     id="path3405"
     d="m 1560.0293,2469.8139 c -50.4139,-3.4008 -98.0415,-10.3013 -150.625,-21.8233 -10.6562,-2.335 -26.125,-5.1565 -34.375,-6.2701 -96.1676,-12.9809 -217.8846,-57.8454 -328.125,-120.9459 -202.45267,-115.882 -363.57947,-281.4521 -454.59665,-467.133 -49.95481,-101.9111 -78.32718,-206.1536 -86.76563,-318.7846 -2.10387,-28.0812 -0.77347,-89.7006 2.52245,-116.8305 14.63202,-120.4411 57.89215,-239.9167 128.78205,-355.6695 34.03401,-55.5725 75.20941,-109.10194 125.05779,-162.57924 9.99729,-10.7251 12.3803,-13.8988 10,-13.3179 -1.71875,0.4194 -11.5625,1.7772 -21.875,3.0173 -23.40368,2.8144 -110.58758,3.1725 -138.75,0.5698 C 518.39145,881.46266 443.53782,861.02476 371.4852,824.5742 218.54526,747.20363 97.162205,597.16472 8.875936,376.36093 -2.68708,347.44186 -2.745921,346.02284 7.494472,343.04586 c 11.195894,-3.25472 14.065639,-2.69492 25.747423,5.0226 37.14097,24.53706 127.377665,59.62138 201.787405,78.45558 110.58705,27.99121 197.49597,30.36132 259.71367,7.08269 8.61068,-3.22166 14.49805,-7.36642 29.84974,-21.01446 60.39565,-53.69324 143.18649,-94.36441 227.9366,-111.97431 81.37429,-16.90846 166.38653,-12.99443 234.3574,10.79001 19.46749,6.81206 45.59969,18.89471 60.01759,27.75005 6.5313,4.01144 17.7813,10.6684 25,14.79325 52.6437,30.08102 97.3346,61.27859 140,97.73043 20.5784,17.5814 49.3801,45.10877 58.5317,55.94202 4.5889,5.43188 14.1657,15.60962 21.282,22.61719 11.5389,11.36267 35.5515,40.75196 37.4267,45.80697 1.0551,2.84437 11.8221,18.91322 12.3316,18.40379 0.5177,-0.51782 -27.5619,-70.27961 -43.6096,-108.34471 -16.1267,-38.25204 -31.6548,-73.0656 -36.7259,-82.33835 -4.6355,-8.47615 -9.8596,-27.52674 -8.7492,-31.9056 1.0771,-4.2482 9.6257,-12.16744 16.5942,-15.3726 24.9346,-11.46869 70.8179,-7.40956 85.1893,7.53641 l 3.8031,3.95514 0.6731,26.875 c 1.4114,56.35087 9.536,110.01519 26.9676,178.125 7.338,28.67176 9.8042,36.84401 9.9562,32.99402 0.8993,-22.76906 4.5662,-49.05968 9.4806,-67.97409 10.7211,-41.2637 33.3577,-72.67704 55.3811,-76.85369 7.9243,-1.50279 11.6358,-3.36369 25.2175,-12.64345 48.1634,-32.9078 157.4031,-152.11956 244.0125,-266.28715 l 11.9591,-15.76438 -1.1944,-6.73562 c -0.6569,-3.7046 -3.9507,-19.41663 -7.3195,-34.9156 -3.3687,-15.49898 -6.7116,-33.35835 -7.4286,-39.6875 -2.3931,-21.12553 1.6521,-41.16193 13.4784,-66.75986 6.6759,-14.44974 11.231,-17.68404 25.7744,-18.3005 16.4282,-0.69635 34.2622,5.32602 53.3507,18.01602 9.6509,6.41589 12.7976,10.22361 12.6375,15.29226 -0.059,1.85325 -4.037,11.52579 -8.8411,21.49454 -10.8364,22.48609 -16.2818,38.0277 -23.4314,66.875 -7.5017,30.26751 -7.7655,34.40364 -3.7224,58.35318 4.6558,27.5784 5.5999,30.13143 17.064,46.14643 84.8304,118.50554 234.3707,207.25887 342.4108,203.22354 9.9687,-0.37234 22.7836,-1.6429 28.4774,-2.82347 l 10.3525,-2.1465 9.8372,-10.39242 c 18.7146,-19.77071 35.1501,-43.99366 52.6878,-77.65213 5.0986,-9.78525 9.5513,-17.79467 9.8951,-17.79869 0.969,-0.0113 21.3725,31.64205 29.3385,45.51485 31.6659,55.1469 72.7721,154.59672 109.9582,266.02675 49.1545,147.29312 85.2383,294.09556 79.7332,324.38416 l -1.1263,6.1963 10.4983,15.484 c 69.1132,101.93544 110.9321,256.07264 121.5426,447.98404 4.253,76.9261 1.9849,168.3286 -5.6404,227.2855 -1.5631,12.0863 -1.6451,16.6126 -0.4489,24.7935 2.1658,14.8121 0.8168,54.3883 -2.4431,71.671 -14.2626,75.6149 -59.8276,158.8779 -121.9785,222.8965 -26.9825,27.7934 -50.9242,46.7463 -72.5915,57.4653 -16.1235,7.9763 -22.2514,9.6356 -35.5921,9.6369 -10.6374,0 -12.6048,-0.3743 -18.877,-3.6035 -3.8511,-1.9826 -8.1784,-4.5138 -9.6161,-5.625 l -2.6142,-2.0202 4.3412,-17.5 c 5.4535,-21.9849 10.9377,-53.8954 13.8563,-80.625 3.0679,-28.0971 3.0612,-96.3905 -0.013,-126.25 -11.746,-114.1069 -44.7487,-222.9643 -102.6961,-338.737 -56.8946,-113.6695 -131.7498,-220.7623 -228.0877,-326.3166 -7.2428,-7.9358 -19.5705,-21.717 -27.395,-30.625 -81.3655,-92.6338 -204.6143,-192.53274 -324.5238,-263.04187 -20.1801,-11.86632 -35.625,-20.38296 -35.625,-19.64443 0,0.30813 5.4844,4.67325 12.1875,9.70023 58.1718,43.62583 141.8518,114.80363 212.1311,180.43777 31.3584,29.2858 110.58,108.9358 136.24,136.9769 68.7605,75.1409 112.4942,131.8716 134.4255,174.375 4.9665,9.625 12.3455,23.7402 16.3979,31.3672 4.0524,7.627 7.368,14.421 7.368,15.0978 0,0.6767 5.7268,10.749 12.7261,22.3827 63.5994,105.7097 118.4394,298.1354 134.0969,470.5273 5.003,55.0837 6.3943,128.3625 3.2988,173.75 -7.2798,106.7385 -29.3169,196.5172 -67.0412,273.125 -18.4931,37.5544 -42.8458,75.5632 -52.2327,81.5226 -17.0976,10.8549 -42.368,17.585 -70.2229,18.7021 -27.8912,1.1185 -45.8154,-1.0333 -105.625,-12.6807 -69.3359,-13.5026 -96.6861,-12.3654 -118.125,4.9119 -16.1631,13.0256 -62.2575,31.4918 -110.625,44.3186 -32.6595,8.661 -73.2611,15.791 -111.25,19.5364 -24.1232,2.3783 -94.822,3.4271 -119.375,1.771 z m 118.0559,-33.0389 c 56.9571,-5.7911 113.4288,-18.5161 160.0691,-36.0689 27.1224,-10.2073 36.2267,-14.544 43.125,-20.5413 8.0326,-6.9837 23.5374,-14.6297 36.25,-17.8762 24.4805,-6.2517 50.9681,-4.5096 114.0094,7.4988 51.1197,9.7375 68.4911,11.8117 91.6156,10.9392 26.3065,-0.9926 48.0981,-7.167 56.25,-15.9378 6.8224,-7.3404 25.6588,-38.3878 37.6213,-62.01 60.591,-119.6478 81.2501,-280.9243 59.7796,-466.6718 -18.4468,-159.5886 -69.5438,-330.826 -128.7042,-431.3162 -4.6758,-7.9427 -10.6887,-19.514 -13.3618,-25.7143 -5.9444,-13.7881 -27.1444,-50.7809 -40.6814,-70.9867 -72.1418,-107.6811 -250.959,-287.7935 -415.7249,-418.73624 -73.1223,-58.11174 -129.9911,-97.83924 -202.0536,-141.15105 -37.562,-22.5759 -46.7661,-26.96301 -71.4054,-34.03477 -62.7699,-18.01573 -138.3751,-24.54826 -201.7196,-17.42918 -124.985,14.04662 -245.1059,70.06216 -358.75,167.2946 -20.00634,17.1172 -76.12943,74.057 -94.44937,95.8238 -95.54898,113.52644 -161.80112,240.32154 -194.30965,371.87504 -14.0755,56.9599 -19.95475,103.2889 -19.97808,157.4293 -0.0602,139.8493 41.93011,285.0965 120.35669,416.3207 86.8554,145.3275 221.07418,276.8166 380.88041,373.1345 118.3349,71.3222 241.2484,118.2966 348.125,133.0445 7.5625,1.0435 23.875,4.1256 36.25,6.8492 41.8318,9.2068 87.9799,16.1254 125.625,18.8342 9.9688,0.7173 20.9375,1.5137 24.375,1.7697 15.0065,1.1178 88.6741,-0.4956 106.8059,-2.3391 z m 903.0529,-809.418 c 10.4181,-112.3386 5.6495,-240.7945 -13.1058,-353.0402 -21.338,-127.7024 -59.133,-227.9629 -112.4156,-298.20984 -3.911,-5.1562 -8.8093,-11.0625 -10.8849,-13.125 -4.1894,-4.1627 -17.1055,-23.3014 -28.7539,-42.6064 -20.7153,-34.3321 -49.772,-91.6723 -92.1092,-181.7686 -48.614,-103.45361 -75.1541,-155.16789 -98.1509,-191.25 -16.7766,-26.32281 -36.1331,-50.63335 -48.6776,-61.13625 l -6.2276,-5.21403 -13.9095,6.97591 c -84.8007,42.52912 -186.7072,20.14264 -268.8597,-59.06214 -39.3777,-37.96478 -70.4227,-83.98414 -93.453,-138.52912 -11.5618,-27.383 -22.8411,-64.15756 -27.7682,-90.53437 -0.8348,-4.46875 -1.9844,-8.96875 -2.5548,-10 -1.7032,-3.07939 -1.274,16.03966 0.8045,35.83157 6.5444,62.3183 28.6468,151.16867 63.9312,256.99945 13.5397,40.61059 16.108,47.27997 18.3825,47.73524 64.1353,12.83805 132.0336,54.52175 213.3414,130.97355 113.8248,107.02663 239.2628,280.09399 315.5278,435.33523 39.7777,80.9695 54.0551,121.5514 73.675,209.4121 20.539,91.977 58.2249,201.5254 100.6954,292.7088 11.9282,25.6098 26.4662,52.5997 27.638,51.3102 0.4655,-0.5121 1.7591,-10.7749 2.8749,-22.8061 z m -440.9615,-430.3125 c -5.4412,-114.0063 -53.1148,-236.14614 -110.0502,-281.94824 -9.1973,-7.399 -25.3097,-17.3183 -26.3847,-16.2434 -0.2933,0.2933 3.149,11.1861 7.6496,24.2062 22.1443,64.0622 54.337,174.65694 59.9971,206.11344 0.5883,3.2689 2.6577,6.864 6.1157,10.625 9.1678,9.9711 34.5698,40.1188 48.7635,57.874 7.5561,9.452 13.968,17.1855 14.2487,17.1855 0.2808,0 0.1279,-8.0156 -0.3397,-17.8125 z M 1684.4488,759.23196 c -4.3939,-75.14089 -17.0708,-184.30719 -31.2809,-269.375 -9.0783,-54.34668 -21.1557,-107.6168 -28.19,-124.3387 l -2.088,-4.9637 -15.6807,16.8387 c -23.1943,24.90708 -60.2983,61.53512 -75.7149,74.74361 -26.7435,22.91313 -42.8389,33.37116 -59.3166,38.54119 -8.9953,2.82237 -11.002,4.00494 -15.3165,9.02591 -10.3839,12.08401 -20.0371,35.58134 -24.8379,60.45873 -11.1199,57.62162 -0.9609,113.95551 25.1211,139.30233 2.9667,2.88304 16.331,11.51917 29.7599,19.23097 20.9355,12.02267 27.0208,14.87337 43.125,20.20217 26.386,8.731 55.5919,20.46429 83.1335,33.39833 20.7618,9.7501 57.1719,28.59618 68.0789,35.23802 l 3.7876,2.30645 0.4041,-13.4295 c 0.2223,-7.38624 -0.2207,-24.11701 -0.9846,-37.17951 z"
     style="fill:#f46b58" />
  <path
     inkscape:connector-curvature="0"
     id="path3403"
     d="m 1560.0293,2469.8139 c -50.4139,-3.4008 -98.0415,-10.3013 -150.625,-21.8233 -10.6562,-2.335 -26.125,-5.1565 -34.375,-6.2701 -96.1676,-12.9809 -217.8846,-57.8454 -328.125,-120.9459 -202.45267,-115.882 -363.57947,-281.4521 -454.59665,-467.133 -49.95481,-101.9111 -78.32718,-206.1536 -86.76563,-318.7846 -2.10387,-28.0812 -0.77347,-89.7006 2.52245,-116.8305 14.63202,-120.4411 57.89215,-239.9167 128.78205,-355.6695 34.03401,-55.5725 75.20941,-109.10194 125.05779,-162.57924 9.99729,-10.7251 12.3803,-13.8988 10,-13.3179 -1.71875,0.4194 -11.5625,1.7772 -21.875,3.0173 -23.40368,2.8144 -110.58758,3.1725 -138.75,0.5698 C 518.39145,881.46266 443.53782,861.02476 371.4852,824.5742 218.54526,747.20363 97.162205,597.16472 8.875936,376.36093 -2.68708,347.44186 -2.745921,346.02284 7.494472,343.04586 c 11.195894,-3.25472 14.065639,-2.69492 25.747423,5.0226 37.14097,24.53706 127.377665,59.62138 201.787405,78.45558 110.58705,27.99121 197.49597,30.36132 259.71367,7.08269 8.61068,-3.22166 14.49805,-7.36642 29.84974,-21.01446 60.39565,-53.69324 143.18649,-94.36441 227.9366,-111.97431 81.37429,-16.90846 166.38653,-12.99443 234.3574,10.79001 19.46749,6.81206 45.59969,18.89471 60.01759,27.75005 6.5313,4.01144 17.7813,10.6684 25,14.79325 52.6437,30.08102 97.3346,61.27859 140,97.73043 20.5784,17.5814 49.3801,45.10877 58.5317,55.94202 4.5889,5.43188 14.1657,15.60962 21.282,22.61719 11.5389,11.36267 35.5515,40.75196 37.4267,45.80697 1.0551,2.84437 11.8221,18.91322 12.3316,18.40379 0.5177,-0.51782 -27.5619,-70.27961 -43.6096,-108.34471 -16.1267,-38.25204 -31.6548,-73.0656 -36.7259,-82.33835 -4.6355,-8.47615 -9.8596,-27.52674 -8.7492,-31.9056 1.0771,-4.2482 9.6257,-12.16744 16.5942,-15.3726 24.9346,-11.46869 70.8179,-7.40956 85.1893,7.53641 l 3.8031,3.95514 0.6731,26.875 c 1.4114,56.35087 9.536,110.01519 26.9676,178.125 7.338,28.67176 9.8042,36.84401 9.9562,32.99402 0.8993,-22.76906 4.5662,-49.05968 9.4806,-67.97409 10.7211,-41.2637 33.3577,-72.67704 55.3811,-76.85369 7.9243,-1.50279 11.6358,-3.36369 25.2175,-12.64345 48.1634,-32.9078 157.4031,-152.11956 244.0125,-266.28715 l 11.9591,-15.76438 -1.1944,-6.73562 c -0.6569,-3.7046 -3.9507,-19.41663 -7.3195,-34.9156 -3.3687,-15.49898 -6.7116,-33.35835 -7.4286,-39.6875 -2.3931,-21.12553 1.6521,-41.16193 13.4784,-66.75986 6.6759,-14.44974 11.231,-17.68404 25.7744,-18.3005 16.4282,-0.69635 34.2622,5.32602 53.3507,18.01602 9.6509,6.41589 12.7976,10.22361 12.6375,15.29226 -0.059,1.85325 -4.037,11.52579 -8.8411,21.49454 -10.8364,22.48609 -16.2818,38.0277 -23.4314,66.875 -7.5017,30.26751 -7.7655,34.40364 -3.7224,58.35318 4.6558,27.5784 5.5999,30.13143 17.064,46.14643 84.8304,118.50554 234.3707,207.25887 342.4108,203.22354 9.9687,-0.37234 22.7836,-1.6429 28.4774,-2.82347 l 10.3525,-2.1465 9.8372,-10.39242 c 18.7146,-19.77071 35.1501,-43.99366 52.6878,-77.65213 5.0986,-9.78525 9.5513,-17.79467 9.8951,-17.79869 0.969,-0.0113 21.3725,31.64205 29.3385,45.51485 31.6659,55.1469 72.7721,154.59672 109.9582,266.02675 49.1545,147.29312 85.2383,294.09556 79.7332,324.38416 l -1.1263,6.1963 10.4983,15.484 c 69.1132,101.93544 110.9321,256.07264 121.5426,447.98404 4.253,76.9261 1.9849,168.3286 -5.6404,227.2855 -1.5631,12.0863 -1.6451,16.6126 -0.4489,24.7935 2.1658,14.8121 0.8168,54.3883 -2.4431,71.671 -14.2626,75.6149 -59.8276,158.8779 -121.9785,222.8965 -26.9825,27.7934 -50.9242,46.7463 -72.5915,57.4653 -16.1235,7.9763 -22.2514,9.6356 -35.5921,9.6369 -10.6374,0 -12.6048,-0.3743 -18.877,-3.6035 -3.8511,-1.9826 -8.1784,-4.5138 -9.6161,-5.625 l -2.6142,-2.0202 4.3412,-17.5 c 5.4535,-21.9849 10.9377,-53.8954 13.8563,-80.625 3.0679,-28.0971 3.0612,-96.3905 -0.013,-126.25 -11.746,-114.1069 -44.7487,-222.9643 -102.6961,-338.737 -56.8946,-113.6695 -131.7498,-220.7623 -228.0877,-326.3166 -7.2428,-7.9358 -19.5705,-21.717 -27.395,-30.625 -81.3655,-92.6338 -204.6143,-192.53274 -324.5238,-263.04187 -20.1801,-11.86632 -35.625,-20.38296 -35.625,-19.64443 0,0.30813 5.4844,4.67325 12.1875,9.70023 58.1718,43.62583 141.8518,114.80363 212.1311,180.43777 31.3584,29.2858 110.58,108.9358 136.24,136.9769 68.7605,75.1409 112.4942,131.8716 134.4255,174.375 4.9665,9.625 12.3455,23.7402 16.3979,31.3672 4.0524,7.627 7.368,14.421 7.368,15.0978 0,0.6767 5.7268,10.749 12.7261,22.3827 63.5994,105.7097 118.4394,298.1354 134.0969,470.5273 5.003,55.0837 6.3943,128.3625 3.2988,173.75 -7.2798,106.7385 -29.3169,196.5172 -67.0412,273.125 -18.4931,37.5544 -42.8458,75.5632 -52.2327,81.5226 -17.0976,10.8549 -42.368,17.585 -70.2229,18.7021 -27.8912,1.1185 -45.8154,-1.0333 -105.625,-12.6807 -69.3359,-13.5026 -96.6861,-12.3654 -118.125,4.9119 -16.1631,13.0256 -62.2575,31.4918 -110.625,44.3186 -32.6595,8.661 -73.2611,15.791 -111.25,19.5364 -24.1232,2.3783 -94.822,3.4271 -119.375,1.771 z m 118.0559,-33.0389 c 56.9571,-5.7911 113.4288,-18.5161 160.0691,-36.0689 27.1224,-10.2073 36.2267,-14.544 43.125,-20.5413 8.0326,-6.9837 23.5374,-14.6297 36.25,-17.8762 24.4805,-6.2517 50.9681,-4.5096 114.0094,7.4988 51.1197,9.7375 68.4911,11.8117 91.6156,10.9392 26.3065,-0.9926 48.0981,-7.167 56.25,-15.9378 6.8224,-7.3404 25.6588,-38.3878 37.6213,-62.01 60.591,-119.6478 81.2501,-280.9243 59.7796,-466.6718 -18.4468,-159.5886 -69.5438,-330.826 -128.7042,-431.3162 -4.6758,-7.9427 -10.6887,-19.514 -13.3618,-25.7143 -5.9444,-13.7881 -27.1444,-50.7809 -40.6814,-70.9867 -72.1418,-107.6811 -250.959,-287.7935 -415.7249,-418.73624 -73.1223,-58.11174 -129.9911,-97.83924 -202.0536,-141.15105 -37.562,-22.5759 -46.7661,-26.96301 -71.4054,-34.03477 -62.7699,-18.01573 -138.3751,-24.54826 -201.7196,-17.42918 -124.985,14.04662 -245.1059,70.06216 -358.75,167.2946 -20.00634,17.1172 -76.12943,74.057 -94.44937,95.8238 -95.54898,113.52644 -161.80112,240.32154 -194.30965,371.87504 -14.0755,56.9599 -19.95475,103.2889 -19.97808,157.4293 -0.0602,139.8493 41.93011,285.0965 120.35669,416.3207 86.8554,145.3275 221.07418,276.8166 380.88041,373.1345 118.3349,71.3222 241.2484,118.2966 348.125,133.0445 7.5625,1.0435 23.875,4.1256 36.25,6.8492 41.8318,9.2068 87.9799,16.1254 125.625,18.8342 9.9688,0.7173 20.9375,1.5137 24.375,1.7697 15.0065,1.1178 88.6741,-0.4956 106.8059,-2.3391 z m 718.65,-435.3129 c 10.5472,-4.9896 26.9761,-16.4731 42.0441,-29.3881 57.1579,-48.9908 111.4765,-132.3519 130.5856,-200.4054 6.968,-24.8151 9.0598,-38.2645 9.7193,-62.4888 l 0.6139,-22.5523 -6.3883,-8.44 c -9.4849,-12.5314 -18.7895,-28.9675 -33.9342,-59.9437 -45.36,-92.7767 -88.034,-216.3469 -110.5999,-320.2618 -3.1353,-14.4375 -7.6181,-33.5625 -9.9621,-42.5 -35.5178,-135.428 -157.8513,-344.25964 -290.8675,-496.53023 -96.7964,-110.80773 -187.4799,-181.507 -262.6508,-204.76935 -6.0412,-1.86951 -11.2842,-3.0989 -11.6511,-2.73197 -0.8886,0.88859 25.504,67.13747 38.2691,96.06031 5.576,12.63416 14,30.00245 18.72,38.5962 25.8345,47.03779 51.454,103.70355 75.7291,167.4997 4.3164,11.3436 8.5947,21.0352 9.5074,21.537 0.9128,0.5017 6.2115,2.618 11.7751,4.7027 12.4465,4.6639 29.269,15.6439 41.9278,27.3662 51.754,47.9258 94.3739,149.72894 106.8161,255.14444 2.2074,18.7025 3.0944,62.0115 1.4335,70 -0.8609,4.1406 -0.1292,5.4468 13.6534,24.375 44.1015,60.5669 85.6822,128.8284 118.4014,194.375 86.7792,173.8458 122.2087,344.3699 103.2348,496.875 -2.2226,17.8648 -7.6553,49.8575 -9.5278,56.1078 -0.6134,2.0477 -0.2415,2.241 2.8291,1.4703 1.9444,-0.488 6.5894,-2.3321 10.322,-4.098 z m 184.4029,-374.1051 c 10.4181,-112.3386 5.6495,-240.7945 -13.1058,-353.0402 -21.338,-127.7024 -59.133,-227.9629 -112.4156,-298.20984 -3.911,-5.1562 -8.8093,-11.0625 -10.8849,-13.125 -4.1894,-4.1627 -17.1055,-23.3014 -28.7539,-42.6064 -20.7153,-34.3321 -49.772,-91.6723 -92.1092,-181.7686 -48.614,-103.45361 -75.1541,-155.16789 -98.1509,-191.25 -16.7766,-26.32281 -36.1331,-50.63335 -48.6776,-61.13625 l -6.2276,-5.21403 -13.9095,6.97591 c -84.8007,42.52912 -186.7072,20.14264 -268.8597,-59.06214 -39.3777,-37.96478 -70.4227,-83.98414 -93.453,-138.52912 -11.5618,-27.383 -22.8411,-64.15756 -27.7682,-90.53437 -0.8348,-4.46875 -1.9844,-8.96875 -2.5548,-10 -1.7032,-3.07939 -1.274,16.03966 0.8045,35.83157 6.5444,62.3183 28.6468,151.16867 63.9312,256.99945 13.5397,40.61059 16.108,47.27997 18.3825,47.73524 64.1353,12.83805 132.0336,54.52175 213.3414,130.97355 113.8248,107.02663 239.2628,280.09399 315.5278,435.33523 39.7777,80.9695 54.0551,121.5514 73.675,209.4121 20.539,91.977 58.2249,201.5254 100.6954,292.7088 11.9282,25.6098 26.4662,52.5997 27.638,51.3102 0.4655,-0.5121 1.7591,-10.7749 2.8749,-22.8061 z m -440.9615,-430.3125 c -5.4412,-114.0063 -53.1148,-236.14614 -110.0502,-281.94824 -9.1973,-7.399 -25.3097,-17.3183 -26.3847,-16.2434 -0.2933,0.2933 3.149,11.1861 7.6496,24.2062 22.1443,64.0622 54.337,174.65694 59.9971,206.11344 0.5883,3.2689 2.6577,6.864 6.1157,10.625 9.1678,9.9711 34.5698,40.1188 48.7635,57.874 7.5561,9.452 13.968,17.1855 14.2487,17.1855 0.2808,0 0.1279,-8.0156 -0.3397,-17.8125 z m -93.89,-93.75 c -0.2967,-0.8594 -3.98,-14.2187 -8.1853,-29.6875 -39.0954,-143.81164 -95.3864,-291.9027 -143.6931,-378.0295 -29.9926,-53.47448 -83.2304,-196.63628 -114.3859,-307.59554 -17.6994,-63.03576 -34.368,-144.93586 -34.368,-168.86468 0,-2.34317 -0.4219,-4.22565 -0.9375,-4.18327 -0.5156,0.0424 -11.7339,13.68301 -24.9295,30.3125 -20.172,25.4214 -50.4226,61.7446 -77.0369,92.50155 l -6.0289,6.96729 4.3937,11.00831 c 14.9073,37.35073 31.2886,121.68884 45.7192,235.3833 10.3829,81.80346 16.2233,148.26956 17.2186,195.95641 l 0.7115,34.08143 7.6324,4.55976 c 71.1854,42.5279 155.2646,105.2443 225.1324,167.9308 26.3517,23.64324 72.229,69.72544 92.3714,92.78414 8.8581,10.1406 16.29,18.4375 16.5153,18.4375 0.2254,0 0.1672,-0.7031 -0.1295,-1.5625 z m 406.8611,-167.50004 c -0.017,-10.2464 -8.6954,-53.9686 -18.8715,-95.07353 -31.1282,-125.7372 -83.8412,-283.01158 -129.4969,-386.36638 -9.3157,-21.08884 -27.7521,-58.86599 -33.7547,-69.16546 l -3.0848,-5.29288 -9.3811,14.0409 c -18.0131,26.96085 -39.35,50.89251 -59.7953,67.0668 -5.4912,4.34417 -10.2046,8.09935 -10.474,8.34482 -0.2695,0.24549 4.6185,5.78984 10.8621,12.3208 37.4421,39.16496 70.0437,96.31239 140.1607,245.68743 47.2189,100.59355 75.6431,156.1674 99.4169,194.375 12.1848,19.5827 14.4312,21.7736 14.4186,14.0625 z m -768.6989,-176.5625 c -4.3939,-75.14089 -17.0708,-184.30719 -31.2809,-269.375 -9.0783,-54.34668 -21.1557,-107.6168 -28.19,-124.3387 l -2.088,-4.9637 -15.6807,16.8387 c -23.1943,24.90708 -60.2983,61.53512 -75.7149,74.74361 -26.7435,22.91313 -42.8389,33.37116 -59.3166,38.54119 -8.9953,2.82237 -11.002,4.00494 -15.3165,9.02591 -10.3839,12.08401 -20.0371,35.58134 -24.8379,60.45873 -11.1199,57.62162 -0.9609,113.95551 25.1211,139.30233 2.9667,2.88304 16.331,11.51917 29.7599,19.23097 20.9355,12.02267 27.0208,14.87337 43.125,20.20217 26.386,8.731 55.5919,20.46429 83.1335,33.39833 20.7618,9.7501 57.1719,28.59618 68.0789,35.23802 l 3.7876,2.30645 0.4041,-13.4295 c 0.2223,-7.38624 -0.2207,-24.11701 -0.9846,-37.17951 z m 413.0805,-283.91978 c 20.1101,-3.72936 37.7214,-10.28075 55.8284,-20.76808 l 9.1716,-5.31214 -20.625,-0.86131 c -32.1149,-1.34114 -61.9745,-7.40482 -94.3138,-19.15254 -59.5406,-21.62908 -117.2663,-56.68191 -170.4505,-103.50279 -12.8495,-11.31208 -41.6343,-40.21845 -52.5117,-52.73336 l -6.5186,-7.5 5.0892,12.34189 c 33.4223,81.05098 91.6889,147.11482 157.7703,178.88272 40.562,19.49974 78.8137,25.60558 116.5601,18.60562 z"
     style="fill:#9fc93c" />
  <path
     inkscape:connector-curvature="0"
     id="path3401"
     d="m 1560.0293,2469.8139 c -50.4139,-3.4008 -98.0415,-10.3013 -150.625,-21.8233 -10.6562,-2.335 -26.125,-5.1565 -34.375,-6.2701 -96.1676,-12.9809 -217.8846,-57.8454 -328.125,-120.9459 -202.45267,-115.882 -363.57947,-281.4521 -454.59665,-467.133 -49.95481,-101.9111 -78.32718,-206.1536 -86.76563,-318.7846 -2.10387,-28.0812 -0.77347,-89.7006 2.52245,-116.8305 14.63202,-120.4411 57.89215,-239.9167 128.78205,-355.6695 34.03401,-55.5725 75.20941,-109.10194 125.05779,-162.57924 9.99729,-10.7251 12.3803,-13.8988 10,-13.3179 -1.71875,0.4194 -11.5625,1.7772 -21.875,3.0173 -23.40368,2.8144 -110.58758,3.1725 -138.75,0.5698 C 518.39145,881.46266 443.53782,861.02476 371.4852,824.5742 218.54526,747.20363 97.162205,597.16472 8.875936,376.36093 -2.68708,347.44186 -2.745921,346.02284 7.494472,343.04586 c 11.195894,-3.25472 14.065639,-2.69492 25.747423,5.0226 37.14097,24.53706 127.377665,59.62138 201.787405,78.45558 110.58705,27.99121 197.49597,30.36132 259.71367,7.08269 8.61068,-3.22166 14.49805,-7.36642 29.84974,-21.01446 60.39565,-53.69324 143.18649,-94.36441 227.9366,-111.97431 81.37429,-16.90846 166.38653,-12.99443 234.3574,10.79001 19.46749,6.81206 45.59969,18.89471 60.01759,27.75005 6.5313,4.01144 17.7813,10.6684 25,14.79325 52.6437,30.08102 97.3346,61.27859 140,97.73043 20.5784,17.5814 49.3801,45.10877 58.5317,55.94202 4.5889,5.43188 14.1657,15.60962 21.282,22.61719 11.5389,11.36267 35.5515,40.75196 37.4267,45.80697 1.0551,2.84437 11.8221,18.91322 12.3316,18.40379 0.5177,-0.51782 -27.5619,-70.27961 -43.6096,-108.34471 -16.1267,-38.25204 -31.6548,-73.0656 -36.7259,-82.33835 -4.6355,-8.47615 -9.8596,-27.52674 -8.7492,-31.9056 1.0771,-4.2482 9.6257,-12.16744 16.5942,-15.3726 24.9346,-11.46869 70.8179,-7.40956 85.1893,7.53641 l 3.8031,3.95514 0.6731,26.875 c 1.4114,56.35087 9.536,110.01519 26.9676,178.125 7.338,28.67176 9.8042,36.84401 9.9562,32.99402 0.8993,-22.76906 4.5662,-49.05968 9.4806,-67.97409 10.7211,-41.2637 33.3577,-72.67704 55.3811,-76.85369 7.9243,-1.50279 11.6358,-3.36369 25.2175,-12.64345 48.1634,-32.9078 157.4031,-152.11956 244.0125,-266.28715 l 11.9591,-15.76438 -1.1944,-6.73562 c -0.6569,-3.7046 -3.9507,-19.41663 -7.3195,-34.9156 -3.3687,-15.49898 -6.7116,-33.35835 -7.4286,-39.6875 -2.3931,-21.12553 1.6521,-41.16193 13.4784,-66.75986 6.6759,-14.44974 11.231,-17.68404 25.7744,-18.3005 16.4282,-0.69635 34.2622,5.32602 53.3507,18.01602 9.6509,6.41589 12.7976,10.22361 12.6375,15.29226 -0.059,1.85325 -4.037,11.52579 -8.8411,21.49454 -10.8364,22.48609 -16.2818,38.0277 -23.4314,66.875 -7.5017,30.26751 -7.7655,34.40364 -3.7224,58.35318 4.6558,27.5784 5.5999,30.13143 17.064,46.14643 84.8304,118.50554 234.3707,207.25887 342.4108,203.22354 9.9687,-0.37234 22.7836,-1.6429 28.4774,-2.82347 l 10.3525,-2.1465 9.8372,-10.39242 c 18.7146,-19.77071 35.1501,-43.99366 52.6878,-77.65213 5.0986,-9.78525 9.5513,-17.79467 9.8951,-17.79869 0.969,-0.0113 21.3725,31.64205 29.3385,45.51485 31.6659,55.1469 72.7721,154.59672 109.9582,266.02675 49.1545,147.29312 85.2383,294.09556 79.7332,324.38416 l -1.1263,6.1963 10.4983,15.484 c 69.1132,101.93544 110.9321,256.07264 121.5426,447.98404 4.253,76.9261 1.9849,168.3286 -5.6404,227.2855 -1.5631,12.0863 -1.6451,16.6126 -0.4489,24.7935 2.1658,14.8121 0.8168,54.3883 -2.4431,71.671 -14.2626,75.6149 -59.8276,158.8779 -121.9785,222.8965 -26.9825,27.7934 -50.9242,46.7463 -72.5915,57.4653 -16.1235,7.9763 -22.2514,9.6356 -35.5921,9.6369 -10.6374,0 -12.6048,-0.3743 -18.877,-3.6035 -3.8511,-1.9826 -8.1784,-4.5138 -9.6161,-5.625 l -2.6142,-2.0202 4.3412,-17.5 c 5.4535,-21.9849 10.9377,-53.8954 13.8563,-80.625 3.0679,-28.0971 3.0612,-96.3905 -0.013,-126.25 -11.746,-114.1069 -44.7487,-222.9643 -102.6961,-338.737 -56.8946,-113.6695 -131.7498,-220.7623 -228.0877,-326.3166 -7.2428,-7.9358 -19.5705,-21.717 -27.395,-30.625 -81.3655,-92.6338 -204.6143,-192.53274 -324.5238,-263.04187 -20.1801,-11.86632 -35.625,-20.38296 -35.625,-19.64443 0,0.30813 5.4844,4.67325 12.1875,9.70023 58.1718,43.62583 141.8518,114.80363 212.1311,180.43777 31.3584,29.2858 110.58,108.9358 136.24,136.9769 68.7605,75.1409 112.4942,131.8716 134.4255,174.375 4.9665,9.625 12.3455,23.7402 16.3979,31.3672 4.0524,7.627 7.368,14.421 7.368,15.0978 0,0.6767 5.7268,10.749 12.7261,22.3827 63.5994,105.7097 118.4394,298.1354 134.0969,470.5273 5.003,55.0837 6.3943,128.3625 3.2988,173.75 -7.2798,106.7385 -29.3169,196.5172 -67.0412,273.125 -18.4931,37.5544 -42.8458,75.5632 -52.2327,81.5226 -17.0976,10.8549 -42.368,17.585 -70.2229,18.7021 -27.8912,1.1185 -45.8154,-1.0333 -105.625,-12.6807 -69.3359,-13.5026 -96.6861,-12.3654 -118.125,4.9119 -16.1631,13.0256 -62.2575,31.4918 -110.625,44.3186 -32.6595,8.661 -73.2611,15.791 -111.25,19.5364 -24.1232,2.3783 -94.822,3.4271 -119.375,1.771 z m 118.0559,-33.0389 c 56.9571,-5.7911 113.4288,-18.5161 160.0691,-36.0689 27.1224,-10.2073 36.2267,-14.544 43.125,-20.5413 8.0326,-6.9837 23.5374,-14.6297 36.25,-17.8762 24.4805,-6.2517 50.9681,-4.5096 114.0094,7.4988 51.1197,9.7375 68.4911,11.8117 91.6156,10.9392 26.3065,-0.9926 48.0981,-7.167 56.25,-15.9378 6.8224,-7.3404 25.6588,-38.3878 37.6213,-62.01 60.591,-119.6478 81.2501,-280.9243 59.7796,-466.6718 -18.4468,-159.5886 -69.5438,-330.826 -128.7042,-431.3162 -4.6758,-7.9427 -10.6887,-19.514 -13.3618,-25.7143 -5.9444,-13.7881 -27.1444,-50.7809 -40.6814,-70.9867 -72.1418,-107.6811 -250.959,-287.7935 -415.7249,-418.73624 -73.1223,-58.11174 -129.9911,-97.83924 -202.0536,-141.15105 -37.562,-22.5759 -46.7661,-26.96301 -71.4054,-34.03477 -62.7699,-18.01573 -138.3751,-24.54826 -201.7196,-17.42918 -124.985,14.04662 -245.1059,70.06216 -358.75,167.2946 -20.00634,17.1172 -76.12943,74.057 -94.44937,95.8238 -95.54898,113.52644 -161.80112,240.32154 -194.30965,371.87504 -14.0755,56.9599 -19.95475,103.2889 -19.97808,157.4293 -0.0602,139.8493 41.93011,285.0965 120.35669,416.3207 86.8554,145.3275 221.07418,276.8166 380.88041,373.1345 118.3349,71.3222 241.2484,118.2966 348.125,133.0445 7.5625,1.0435 23.875,4.1256 36.25,6.8492 41.8318,9.2068 87.9799,16.1254 125.625,18.8342 9.9688,0.7173 20.9375,1.5137 24.375,1.7697 15.0065,1.1178 88.6741,-0.4956 106.8059,-2.3391 z m 718.65,-435.3129 c 10.5472,-4.9896 26.9761,-16.4731 42.0441,-29.3881 57.1579,-48.9908 111.4765,-132.3519 130.5856,-200.4054 6.968,-24.8151 9.0598,-38.2645 9.7193,-62.4888 l 0.6139,-22.5523 -6.3883,-8.44 c -9.4849,-12.5314 -18.7895,-28.9675 -33.9342,-59.9437 -45.36,-92.7767 -88.034,-216.3469 -110.5999,-320.2618 -3.1353,-14.4375 -7.6181,-33.5625 -9.9621,-42.5 -35.5178,-135.428 -157.8513,-344.25964 -290.8675,-496.53023 -96.7964,-110.80773 -187.4799,-181.507 -262.6508,-204.76935 -6.0412,-1.86951 -11.2842,-3.0989 -11.6511,-2.73197 -0.8886,0.88859 25.504,67.13747 38.2691,96.06031 5.576,12.63416 14,30.00245 18.72,38.5962 25.8345,47.03779 51.454,103.70355 75.7291,167.4997 4.3164,11.3436 8.5947,21.0352 9.5074,21.537 0.9128,0.5017 6.2115,2.618 11.7751,4.7027 12.4465,4.6639 29.269,15.6439 41.9278,27.3662 51.754,47.9258 94.3739,149.72894 106.8161,255.14444 2.2074,18.7025 3.0944,62.0115 1.4335,70 -0.8609,4.1406 -0.1292,5.4468 13.6534,24.375 44.1015,60.5669 85.6822,128.8284 118.4014,194.375 86.7792,173.8458 122.2087,344.3699 103.2348,496.875 -2.2226,17.8648 -7.6553,49.8575 -9.5278,56.1078 -0.6134,2.0477 -0.2415,2.241 2.8291,1.4703 1.9444,-0.488 6.5894,-2.3321 10.322,-4.098 z m 184.4029,-374.1051 c 10.4181,-112.3386 5.6495,-240.7945 -13.1058,-353.0402 -21.338,-127.7024 -59.133,-227.9629 -112.4156,-298.20984 -3.911,-5.1562 -8.8093,-11.0625 -10.8849,-13.125 -4.1894,-4.1627 -17.1055,-23.3014 -28.7539,-42.6064 -20.7153,-34.3321 -49.772,-91.6723 -92.1092,-181.7686 -48.614,-103.45361 -75.1541,-155.16789 -98.1509,-191.25 -16.7766,-26.32281 -36.1331,-50.63335 -48.6776,-61.13625 l -6.2276,-5.21403 -13.9095,6.97591 c -84.8007,42.52912 -186.7072,20.14264 -268.8597,-59.06214 -39.3777,-37.96478 -70.4227,-83.98414 -93.453,-138.52912 -11.5618,-27.383 -22.8411,-64.15756 -27.7682,-90.53437 -0.8348,-4.46875 -1.9844,-8.96875 -2.5548,-10 -1.7032,-3.07939 -1.274,16.03966 0.8045,35.83157 6.5444,62.3183 28.6468,151.16867 63.9312,256.99945 13.5397,40.61059 16.108,47.27997 18.3825,47.73524 64.1353,12.83805 132.0336,54.52175 213.3414,130.97355 113.8248,107.02663 239.2628,280.09399 315.5278,435.33523 39.7777,80.9695 54.0551,121.5514 73.675,209.4121 20.539,91.977 58.2249,201.5254 100.6954,292.7088 11.9282,25.6098 26.4662,52.5997 27.638,51.3102 0.4655,-0.5121 1.7591,-10.7749 2.8749,-22.8061 z m -440.9615,-430.3125 c -5.4412,-114.0063 -53.1148,-236.14614 -110.0502,-281.94824 -9.1973,-7.399 -25.3097,-17.3183 -26.3847,-16.2434 -0.2933,0.2933 3.149,11.1861 7.6496,24.2062 22.1443,64.0622 54.337,174.65694 59.9971,206.11344 0.5883,3.2689 2.6577,6.864 6.1157,10.625 9.1678,9.9711 34.5698,40.1188 48.7635,57.874 7.5561,9.452 13.968,17.1855 14.2487,17.1855 0.2808,0 0.1279,-8.0156 -0.3397,-17.8125 z m -93.89,-93.75 c -0.2967,-0.8594 -3.98,-14.2187 -8.1853,-29.6875 -39.0954,-143.81164 -95.3864,-291.9027 -143.6931,-378.0295 -29.9926,-53.47448 -83.2304,-196.63628 -114.3859,-307.59554 -17.6994,-63.03576 -34.368,-144.93586 -34.368,-168.86468 0,-2.34317 -0.4219,-4.22565 -0.9375,-4.18327 -0.5156,0.0424 -11.7339,13.68301 -24.9295,30.3125 -20.172,25.4214 -50.4226,61.7446 -77.0369,92.50155 l -6.0289,6.96729 4.3937,11.00831 c 14.9073,37.35073 31.2886,121.68884 45.7192,235.3833 10.3829,81.80346 16.2233,148.26956 17.2186,195.95641 l 0.7115,34.08143 7.6324,4.55976 c 71.1854,42.5279 155.2646,105.2443 225.1324,167.9308 26.3517,23.64324 72.229,69.72544 92.3714,92.78414 8.8581,10.1406 16.29,18.4375 16.5153,18.4375 0.2254,0 0.1672,-0.7031 -0.1295,-1.5625 z m 406.8611,-167.50004 c -0.017,-10.2464 -8.6954,-53.9686 -18.8715,-95.07353 -31.1282,-125.7372 -83.8412,-283.01158 -129.4969,-386.36638 -9.3157,-21.08884 -27.7521,-58.86599 -33.7547,-69.16546 l -3.0848,-5.29288 -9.3811,14.0409 c -18.0131,26.96085 -39.35,50.89251 -59.7953,67.0668 -5.4912,4.34417 -10.2046,8.09935 -10.474,8.34482 -0.2695,0.24549 4.6185,5.78984 10.8621,12.3208 37.4421,39.16496 70.0437,96.31239 140.1607,245.68743 47.2189,100.59355 75.6431,156.1674 99.4169,194.375 12.1848,19.5827 14.4312,21.7736 14.4186,14.0625 z m -768.6989,-176.5625 c -4.3939,-75.14089 -17.0708,-184.30719 -31.2809,-269.375 -9.0783,-54.34668 -21.1557,-107.6168 -28.19,-124.3387 l -2.088,-4.9637 -15.6807,16.8387 c -23.1943,24.90708 -60.2983,61.53512 -75.7149,74.74361 -26.7435,22.91313 -42.8389,33.37116 -59.3166,38.54119 -8.9953,2.82237 -11.002,4.00494 -15.3165,9.02591 -10.3839,12.08401 -20.0371,35.58134 -24.8379,60.45873 -11.1199,57.62162 -0.9609,113.95551 25.1211,139.30233 2.9667,2.88304 16.331,11.51917 29.7599,19.23097 20.9355,12.02267 27.0208,14.87337 43.125,20.20217 26.386,8.731 55.5919,20.46429 83.1335,33.39833 20.7618,9.7501 57.1719,28.59618 68.0789,35.23802 l 3.7876,2.30645 0.4041,-13.4295 c 0.2223,-7.38624 -0.2207,-24.11701 -0.9846,-37.17951 z M 583.77931,659.2397 c 109.96279,-13.11682 227.0267,-59.50908 316.62763,-125.4791 24.86006,-18.30357 34.44216,-23.08055 50.27486,-25.0634 38.8144,-4.86102 86.2265,-1.57045 131.2225,9.10727 77.84,18.47173 170.3975,64.87876 251.6489,126.17314 5.3756,4.05527 9.9677,7.17774 10.2046,6.93879 1.0946,-1.10414 -11.1012,-23.41328 -21.0429,-38.49245 -22.5092,-34.14107 -45.0316,-61.57407 -78.9356,-96.14633 -55.1424,-56.22921 -113.6349,-100.7303 -186.25,-141.69895 -5.5,-3.10305 -15.3437,-8.91011 -21.875,-12.9046 -87.69989,-53.63686 -218.00549,-61.39179 -338.12499,-20.12295 -60.8185,20.8951 -122.35371,57.2335 -165.36082,97.65056 -9.9983,9.39618 -16.04164,13.02199 -30.88918,18.53259 -57.40784,21.30665 -134.46086,22.22629 -230.0746,2.74598 C 211.0276,448.21979 140.49492,426.1979 86.904305,402.93752 c -5.84375,-2.53641 -12.59375,-5.45101 -15,-6.47689 l -4.375,-1.86523 2.56902,2.94327 C 111.85091,445.3738 178.68822,512.295 206.9043,534.51636 c 23.03254,18.1391 100.32845,60.91576 148.27748,82.05889 35.65883,15.72376 80.92795,32.33233 85.13084,31.23325 1.25017,-0.32693 7.32284,1.09415 13.49485,3.15793 13.16513,4.40214 32.90312,8.49283 48.72184,10.09759 15.42751,1.56509 61.50961,0.53039 81.25,-1.82432 z M 2097.5293,475.31218 c 20.1101,-3.72936 37.7214,-10.28075 55.8284,-20.76808 l 9.1716,-5.31214 -20.625,-0.86131 c -32.1149,-1.34114 -61.9745,-7.40482 -94.3138,-19.15254 -59.5406,-21.62908 -117.2663,-56.68191 -170.4505,-103.50279 -12.8495,-11.31208 -41.6343,-40.21845 -52.5117,-52.73336 l -6.5186,-7.5 5.0892,12.34189 c 33.4223,81.05098 91.6889,147.11482 157.7703,178.88272 40.562,19.49974 78.8137,25.60558 116.5601,18.60562 z m -789.375,-82.88403 c 7.7431,-2.61147 20.9261,-9.77239 27.3801,-14.87268 l 3.005,-2.37479 -7.38,-2.79621 c -13.851,-5.24797 -42.434,-4.78444 -53.6141,0.86946 -8.2255,4.15974 -8.4484,4.81538 -4.3777,12.87917 2.5102,4.97278 4.7423,7.65887 7.1326,8.58332 5.0789,1.96425 18.519,0.86011 27.8541,-2.28827 z"
     style="fill:#6ba646" />
  <path
     inkscape:connector-curvature="0"
     id="path3399"
     d="m 1560.0293,2469.8139 c -50.4139,-3.4008 -98.0415,-10.3013 -150.625,-21.8233 -10.6562,-2.335 -26.125,-5.1565 -34.375,-6.2701 -96.1676,-12.9809 -217.8846,-57.8454 -328.125,-120.9459 -202.45267,-115.882 -363.57947,-281.4521 -454.59665,-467.133 -49.95481,-101.9111 -78.32718,-206.1536 -86.76563,-318.7846 -2.10387,-28.0812 -0.77347,-89.7006 2.52245,-116.8305 14.63202,-120.4411 57.89215,-239.9167 128.78205,-355.6695 34.03401,-55.5725 75.20941,-109.10194 125.05779,-162.57924 9.99729,-10.7251 12.3803,-13.8988 10,-13.3179 -1.71875,0.4194 -11.5625,1.7772 -21.875,3.0173 -23.40368,2.8144 -110.58758,3.1725 -138.75,0.5698 C 518.39145,881.46266 443.53782,861.02476 371.4852,824.5742 218.54526,747.20363 97.162205,597.16472 8.875936,376.36093 -2.68708,347.44186 -2.745921,346.02284 7.494472,343.04586 c 11.195894,-3.25472 14.065639,-2.69492 25.747423,5.0226 37.14097,24.53706 127.377665,59.62138 201.787405,78.45558 110.58705,27.99121 197.49597,30.36132 259.71367,7.08269 8.61068,-3.22166 14.49805,-7.36642 29.84974,-21.01446 60.39565,-53.69324 143.18649,-94.36441 227.9366,-111.97431 81.37429,-16.90846 166.38653,-12.99443 234.3574,10.79001 19.46749,6.81206 45.59969,18.89471 60.01759,27.75005 6.5313,4.01144 17.7813,10.6684 25,14.79325 52.6437,30.08102 97.3346,61.27859 140,97.73043 20.5784,17.5814 49.3801,45.10877 58.5317,55.94202 4.5889,5.43188 14.1657,15.60962 21.282,22.61719 11.5389,11.36267 35.5515,40.75196 37.4267,45.80697 1.0551,2.84437 11.8221,18.91322 12.3316,18.40379 0.5177,-0.51782 -27.5619,-70.27961 -43.6096,-108.34471 -16.1267,-38.25204 -31.6548,-73.0656 -36.7259,-82.33835 -4.6355,-8.47615 -9.8596,-27.52674 -8.7492,-31.9056 1.0771,-4.2482 9.6257,-12.16744 16.5942,-15.3726 24.9346,-11.46869 70.8179,-7.40956 85.1893,7.53641 l 3.8031,3.95514 0.6731,26.875 c 1.4114,56.35087 9.536,110.01519 26.9676,178.125 7.338,28.67176 9.8042,36.84401 9.9562,32.99402 0.8993,-22.76906 4.5662,-49.05968 9.4806,-67.97409 10.7211,-41.2637 33.3577,-72.67704 55.3811,-76.85369 7.9243,-1.50279 11.6358,-3.36369 25.2175,-12.64345 48.1634,-32.9078 157.4031,-152.11956 244.0125,-266.28715 l 11.9591,-15.76438 -1.1944,-6.73562 c -0.6569,-3.7046 -3.9507,-19.41663 -7.3195,-34.9156 -3.3687,-15.49898 -6.7116,-33.35835 -7.4286,-39.6875 -2.3931,-21.12553 1.6521,-41.16193 13.4784,-66.75986 6.6759,-14.44974 11.231,-17.68404 25.7744,-18.3005 16.4282,-0.69635 34.2622,5.32602 53.3507,18.01602 9.6509,6.41589 12.7976,10.22361 12.6375,15.29226 -0.059,1.85325 -4.037,11.52579 -8.8411,21.49454 -10.8364,22.48609 -16.2818,38.0277 -23.4314,66.875 -7.5017,30.26751 -7.7655,34.40364 -3.7224,58.35318 4.6558,27.5784 5.5999,30.13143 17.064,46.14643 84.8304,118.50554 234.3707,207.25887 342.4108,203.22354 9.9687,-0.37234 22.7836,-1.6429 28.4774,-2.82347 l 10.3525,-2.1465 9.8372,-10.39242 c 18.7146,-19.77071 35.1501,-43.99366 52.6878,-77.65213 5.0986,-9.78525 9.5513,-17.79467 9.8951,-17.79869 0.969,-0.0113 21.3725,31.64205 29.3385,45.51485 31.6659,55.1469 72.7721,154.59672 109.9582,266.02675 49.1545,147.29312 85.2383,294.09556 79.7332,324.38416 l -1.1263,6.1963 10.4983,15.484 c 69.1132,101.93544 110.9321,256.07264 121.5426,447.98404 4.253,76.9261 1.9849,168.3286 -5.6404,227.2855 -1.5631,12.0863 -1.6451,16.6126 -0.4489,24.7935 2.1658,14.8121 0.8168,54.3883 -2.4431,71.671 -14.2626,75.6149 -59.8276,158.8779 -121.9785,222.8965 -26.9825,27.7934 -50.9242,46.7463 -72.5915,57.4653 -16.1235,7.9763 -22.2514,9.6356 -35.5921,9.6369 -10.6374,0 -12.6048,-0.3743 -18.877,-3.6035 -3.8511,-1.9826 -8.1784,-4.5138 -9.6161,-5.625 l -2.6142,-2.0202 4.3412,-17.5 c 5.4535,-21.9849 10.9377,-53.8954 13.8563,-80.625 3.0679,-28.0971 3.0612,-96.3905 -0.013,-126.25 -11.746,-114.1069 -44.7487,-222.9643 -102.6961,-338.737 -56.8946,-113.6695 -131.7498,-220.7623 -228.0877,-326.3166 -7.2428,-7.9358 -19.5705,-21.717 -27.395,-30.625 -81.3655,-92.6338 -204.6143,-192.53274 -324.5238,-263.04187 -20.1801,-11.86632 -35.625,-20.38296 -35.625,-19.64443 0,0.30813 5.4844,4.67325 12.1875,9.70023 58.1718,43.62583 141.8518,114.80363 212.1311,180.43777 31.3584,29.2858 110.58,108.9358 136.24,136.9769 68.7605,75.1409 112.4942,131.8716 134.4255,174.375 4.9665,9.625 12.3455,23.7402 16.3979,31.3672 4.0524,7.627 7.368,14.421 7.368,15.0978 0,0.6767 5.7268,10.749 12.7261,22.3827 63.5994,105.7097 118.4394,298.1354 134.0969,470.5273 5.003,55.0837 6.3943,128.3625 3.2988,173.75 -7.2798,106.7385 -29.3169,196.5172 -67.0412,273.125 -18.4931,37.5544 -42.8458,75.5632 -52.2327,81.5226 -17.0976,10.8549 -42.368,17.585 -70.2229,18.7021 -27.8912,1.1185 -45.8154,-1.0333 -105.625,-12.6807 -69.3359,-13.5026 -96.6861,-12.3654 -118.125,4.9119 -16.1631,13.0256 -62.2575,31.4918 -110.625,44.3186 -32.6595,8.661 -73.2611,15.791 -111.25,19.5364 -24.1232,2.3783 -94.822,3.4271 -119.375,1.771 z m 118.0559,-33.0389 c 56.9571,-5.7911 113.4288,-18.5161 160.0691,-36.0689 27.1224,-10.2073 36.2267,-14.544 43.125,-20.5413 8.0326,-6.9837 23.5374,-14.6297 36.25,-17.8762 24.4805,-6.2517 50.9681,-4.5096 114.0094,7.4988 51.1197,9.7375 68.4911,11.8117 91.6156,10.9392 26.3065,-0.9926 48.0981,-7.167 56.25,-15.9378 6.8224,-7.3404 25.6588,-38.3878 37.6213,-62.01 60.591,-119.6478 81.2501,-280.9243 59.7796,-466.6718 -18.4468,-159.5886 -69.5438,-330.826 -128.7042,-431.3162 -4.6758,-7.9427 -10.6887,-19.514 -13.3618,-25.7143 -5.9444,-13.7881 -27.1444,-50.7809 -40.6814,-70.9867 -72.1418,-107.6811 -250.959,-287.7935 -415.7249,-418.73624 -73.1223,-58.11174 -129.9911,-97.83924 -202.0536,-141.15105 -37.562,-22.5759 -46.7661,-26.96301 -71.4054,-34.03477 -62.7699,-18.01573 -138.3751,-24.54826 -201.7196,-17.42918 -124.985,14.04662 -245.1059,70.06216 -358.75,167.2946 -20.00634,17.1172 -76.12943,74.057 -94.44937,95.8238 -95.54898,113.52644 -161.80112,240.32154 -194.30965,371.87504 -14.0755,56.9599 -19.95475,103.2889 -19.97808,157.4293 -0.0602,139.8493 41.93011,285.0965 120.35669,416.3207 86.8554,145.3275 221.07418,276.8166 380.88041,373.1345 118.3349,71.3222 241.2484,118.2966 348.125,133.0445 7.5625,1.0435 23.875,4.1256 36.25,6.8492 41.8318,9.2068 87.9799,16.1254 125.625,18.8342 9.9688,0.7173 20.9375,1.5137 24.375,1.7697 15.0065,1.1178 88.6741,-0.4956 106.8059,-2.3391 z m 718.65,-435.3129 c 10.5472,-4.9896 26.9761,-16.4731 42.0441,-29.3881 57.1579,-48.9908 111.4765,-132.3519 130.5856,-200.4054 6.968,-24.8151 9.0598,-38.2645 9.7193,-62.4888 l 0.6139,-22.5523 -6.3883,-8.44 c -9.4849,-12.5314 -18.7895,-28.9675 -33.9342,-59.9437 -45.36,-92.7767 -88.034,-216.3469 -110.5999,-320.2618 -3.1353,-14.4375 -7.6181,-33.5625 -9.9621,-42.5 -35.5178,-135.428 -157.8513,-344.25964 -290.8675,-496.53023 -96.7964,-110.80773 -187.4799,-181.507 -262.6508,-204.76935 -6.0412,-1.86951 -11.2842,-3.0989 -11.6511,-2.73197 -0.8886,0.88859 25.504,67.13747 38.2691,96.06031 5.576,12.63416 14,30.00245 18.72,38.5962 25.8345,47.03779 51.454,103.70355 75.7291,167.4997 4.3164,11.3436 8.5947,21.0352 9.5074,21.537 0.9128,0.5017 6.2115,2.618 11.7751,4.7027 12.4465,4.6639 29.269,15.6439 41.9278,27.3662 51.754,47.9258 94.3739,149.72894 106.8161,255.14444 2.2074,18.7025 3.0944,62.0115 1.4335,70 -0.8609,4.1406 -0.1292,5.4468 13.6534,24.375 44.1015,60.5669 85.6822,128.8284 118.4014,194.375 86.7792,173.8458 122.2087,344.3699 103.2348,496.875 -2.2226,17.8648 -7.6553,49.8575 -9.5278,56.1078 -0.6134,2.0477 -0.2415,2.241 2.8291,1.4703 1.9444,-0.488 6.5894,-2.3321 10.322,-4.098 z m 184.4029,-374.1051 c 10.4181,-112.3386 5.6495,-240.7945 -13.1058,-353.0402 -21.338,-127.7024 -59.133,-227.9629 -112.4156,-298.20984 -3.911,-5.1562 -8.8093,-11.0625 -10.8849,-13.125 -4.1894,-4.1627 -17.1055,-23.3014 -28.7539,-42.6064 -20.7153,-34.3321 -49.772,-91.6723 -92.1092,-181.7686 -48.614,-103.45361 -75.1541,-155.16789 -98.1509,-191.25 -16.7766,-26.32281 -36.1331,-50.63335 -48.6776,-61.13625 l -6.2276,-5.21403 -13.9095,6.97591 c -84.8007,42.52912 -186.7072,20.14264 -268.8597,-59.06214 -39.3777,-37.96478 -70.4227,-83.98414 -93.453,-138.52912 -11.5618,-27.383 -22.8411,-64.15756 -27.7682,-90.53437 -0.8348,-4.46875 -1.9844,-8.96875 -2.5548,-10 -1.7032,-3.07939 -1.274,16.03966 0.8045,35.83157 6.5444,62.3183 28.6468,151.16867 63.9312,256.99945 13.5397,40.61059 16.108,47.27997 18.3825,47.73524 64.1353,12.83805 132.0336,54.52175 213.3414,130.97355 113.8248,107.02663 239.2628,280.09399 315.5278,435.33523 39.7777,80.9695 54.0551,121.5514 73.675,209.4121 20.539,91.977 58.2249,201.5254 100.6954,292.7088 11.9282,25.6098 26.4662,52.5997 27.638,51.3102 0.4655,-0.5121 1.7591,-10.7749 2.8749,-22.8061 z m -440.9615,-430.3125 c -5.4412,-114.0063 -53.1148,-236.14614 -110.0502,-281.94824 -9.1973,-7.399 -25.3097,-17.3183 -26.3847,-16.2434 -0.2933,0.2933 3.149,11.1861 7.6496,24.2062 22.1443,64.0622 54.337,174.65694 59.9971,206.11344 0.5883,3.2689 2.6577,6.864 6.1157,10.625 9.1678,9.9711 34.5698,40.1188 48.7635,57.874 7.5561,9.452 13.968,17.1855 14.2487,17.1855 0.2808,0 0.1279,-8.0156 -0.3397,-17.8125 z m -93.89,-93.75 c -0.2967,-0.8594 -3.98,-14.2187 -8.1853,-29.6875 -39.0954,-143.81164 -95.3864,-291.9027 -143.6931,-378.0295 -29.9926,-53.47448 -83.2304,-196.63628 -114.3859,-307.59554 -17.6994,-63.03576 -34.368,-144.93586 -34.368,-168.86468 0,-2.34317 -0.4219,-4.22565 -0.9375,-4.18327 -0.5156,0.0424 -11.7339,13.68301 -24.9295,30.3125 -20.172,25.4214 -50.4226,61.7446 -77.0369,92.50155 l -6.0289,6.96729 4.3937,11.00831 c 14.9073,37.35073 31.2886,121.68884 45.7192,235.3833 10.3829,81.80346 16.2233,148.26956 17.2186,195.95641 l 0.7115,34.08143 7.6324,4.55976 c 71.1854,42.5279 155.2646,105.2443 225.1324,167.9308 26.3517,23.64324 72.229,69.72544 92.3714,92.78414 8.8581,10.1406 16.29,18.4375 16.5153,18.4375 0.2254,0 0.1672,-0.7031 -0.1295,-1.5625 z m 406.8611,-167.50004 c -0.017,-10.2464 -8.6954,-53.9686 -18.8715,-95.07353 -31.1282,-125.7372 -83.8412,-283.01158 -129.4969,-386.36638 -9.3157,-21.08884 -27.7521,-58.86599 -33.7547,-69.16546 l -3.0848,-5.29288 -9.3811,14.0409 c -18.0131,26.96085 -39.35,50.89251 -59.7953,67.0668 -5.4912,4.34417 -10.2046,8.09935 -10.474,8.34482 -0.2695,0.24549 4.6185,5.78984 10.8621,12.3208 37.4421,39.16496 70.0437,96.31239 140.1607,245.68743 47.2189,100.59355 75.6431,156.1674 99.4169,194.375 12.1848,19.5827 14.4312,21.7736 14.4186,14.0625 z M 753.66746,864.20896 c 13.12401,-1.7313 27.5181,-4.3097 31.98685,-5.7297 11.74185,-3.731 35.14279,-15.67777 42.12548,-21.50609 15.32809,-12.79408 42.33596,-33.95653 55.37452,-43.38962 7.90625,-5.71998 14.65625,-10.77563 15,-11.23478 1.84915,-2.46991 50.0016,-35.34473 68.2063,-46.56605 36.05219,-22.22251 54.60939,-31.0625 102.55999,-48.85586 56.4045,-20.93046 118.9547,-31.20181 177.3587,-29.12402 20.4789,0.72856 28.7885,1.57648 68.088,6.94773 9.9484,1.35969 18.2024,2.35768 18.3422,2.21775 0.4973,-0.49725 -34.1991,-25.38488 -50.8897,-36.50307 -108.2244,-72.09209 -216.03,-109.30959 -304.29049,-105.04962 -31.4633,1.51861 -40.67061,4.72066 -64.88598,22.56549 -68.68453,50.61518 -153.14089,90.65001 -238.56413,113.08653 -91.30727,23.98196 -176.62878,26.32132 -229.98739,6.30581 l -7.1875,-2.69612 0,-5.45382 c 0,-6.7454 1.84403,-11.86656 4.27293,-11.86656 1.00915,0 6.7887,1.65376 12.84343,3.67501 50.71209,16.92927 125.49355,14.49477 209.75864,-6.82865 85.01979,-21.51438 169.22314,-60.81516 236.62764,-110.44272 24.86006,-18.30357 34.44215,-23.08055 50.27486,-25.0634 38.8144,-4.86102 86.22649,-1.57045 131.22249,9.10727 77.84,18.47173 170.3975,64.87876 251.6489,126.17314 5.3756,4.05527 9.9677,7.17774 10.2046,6.93879 1.0946,-1.10414 -11.1012,-23.41328 -21.0429,-38.49245 -22.5092,-34.14107 -45.0316,-61.57407 -78.9356,-96.14633 -55.1424,-56.22921 -113.6349,-100.7303 -186.25,-141.69895 -5.5,-3.10305 -15.3437,-8.91011 -21.875,-12.9046 -87.69989,-53.63686 -218.00549,-61.39179 -338.12499,-20.12295 -60.8185,20.8951 -122.35371,57.2335 -165.36081,97.65056 -9.99831,9.39618 -16.04164,13.02199 -30.88919,18.53259 -57.40784,21.30665 -134.46085,22.22629 -230.07459,2.74598 -74.20155,-15.1178 -158.56332,-43.4131 -218.532685,-73.29679 -8.1715,-4.072 -14.99486,-7.24565 -15.16302,-7.05256 -0.95479,1.09631 26.7052,61.93127 41.36434,90.97606 C 151.31737,614.6435 242.57762,720.2275 348.99765,783.6286 c 60.78614,36.21411 130.64973,61.49066 203.53166,73.63746 46.41532,7.7357 72.3078,9.6651 133.01316,9.9113 40.75898,0.1654 46.15224,-0.07 68.125,-2.9684 z m 930.78134,-104.977 c -4.3939,-75.14089 -17.0708,-184.30719 -31.2809,-269.375 -9.0783,-54.34668 -21.1557,-107.6168 -28.19,-124.3387 l -2.088,-4.9637 -15.6807,16.8387 c -23.1943,24.90708 -60.2983,61.53512 -75.7149,74.74361 -26.7435,22.91313 -42.8389,33.37116 -59.3166,38.54119 -8.9953,2.82237 -11.002,4.00494 -15.3165,9.02591 -10.3839,12.08401 -20.0371,35.58134 -24.8379,60.45873 -11.1199,57.62162 -0.9609,113.95551 25.1211,139.30233 2.9667,2.88304 16.331,11.51917 29.7599,19.23097 20.9355,12.02267 27.0208,14.87337 43.125,20.20217 26.386,8.731 55.5919,20.46429 83.1335,33.39833 20.7618,9.7501 57.1719,28.59618 68.0789,35.23802 l 3.7876,2.30645 0.4041,-13.4295 c 0.2223,-7.38624 -0.2207,-24.11701 -0.9846,-37.17951 z m -285.6851,-81.5625 c -0.4995,-1.20313 -4.5025,-12.50251 -8.8958,-25.10975 -24.7896,-71.13929 -43.2995,-155.90181 -47.95,-219.57775 -2.171,-29.72651 -2.6737,-34.54073 -3.558,-34.06774 -17.1848,9.19309 -36.6727,15.94274 -46.0306,15.94274 -2.2963,0 -4.175,0.30354 -4.175,0.67453 0,0.37098 5.6096,13.55968 12.4658,29.30823 24.4131,56.07699 58.8287,141.39225 81.4421,201.89224 6.4242,17.1875 12.2511,31.66326 12.9487,32.16836 2.4659,1.78539 4.7007,1.05241 3.7528,-1.23086 z m 698.7656,-202.35728 c 20.1101,-3.72936 37.7214,-10.28075 55.8284,-20.76808 l 9.1716,-5.31214 -20.625,-0.86131 c -32.1149,-1.34114 -61.9745,-7.40482 -94.3138,-19.15254 -59.5406,-21.62908 -117.2663,-56.68191 -170.4505,-103.50279 -12.8495,-11.31208 -41.6343,-40.21845 -52.5117,-52.73336 l -6.5186,-7.5 5.0892,12.34189 c 33.4223,81.05098 91.6889,147.11482 157.7703,178.88272 40.562,19.49974 78.8137,25.60558 116.5601,18.60562 z m -789.375,-82.88403 c 7.7431,-2.61147 20.9261,-9.77239 27.3801,-14.87268 l 3.005,-2.37479 -7.38,-2.79621 c -13.851,-5.24797 -42.434,-4.78444 -53.6141,0.86946 -8.2255,4.15974 -8.4484,4.81538 -4.3777,12.87917 2.5102,4.97278 4.7423,7.65887 7.1326,8.58332 5.0789,1.96425 18.519,0.86011 27.8541,-2.28827 z"
     style="fill:#000000" />
</svg>
