<?xml version="1.0" encoding="UTF-8" standalone="no"?>
<!-- Created with Inkscape (http://www.inkscape.org/) -->

<svg
   xmlns:dc="http://purl.org/dc/elements/1.1/"
   xmlns:cc="http://creativecommons.org/ns#"
   xmlns:rdf="http://www.w3.org/1999/02/22-rdf-syntax-ns#"
   xmlns:svg="http://www.w3.org/2000/svg"
   xmlns="http://www.w3.org/2000/svg"
   xmlns:sodipodi="http://sodipodi.sourceforge.net/DTD/sodipodi-0.dtd"
   xmlns:inkscape="http://www.inkscape.org/namespaces/inkscape"
   id="svg3422"
   version="1.1"
   inkscape:version="0.91 r13725"
   width="2811.25"
   height="2811.25"
   viewBox="0 0 2811.25 2811.25"
   sodipodi:docname="logo.svg">
  <metadata
     id="metadata3428">
    <rdf:RDF>
      <cc:Work
         rdf:about="">
        <dc:format>image/svg+xml</dc:format>
        <dc:type
           rdf:resource="http://purl.org/dc/dcmitype/StillImage" />
        <dc:title></dc:title>
      </cc:Work>
    </rdf:RDF>
  </metadata>
  <defs
     id="defs3426" />
  <sodipodi:namedview
     pagecolor="#ffffff"
     bordercolor="#666666"
     borderopacity="1"
     objecttolerance="10"
     gridtolerance="10"
     guidetolerance="10"
     inkscape:pageopacity="0"
     inkscape:pageshadow="2"
     inkscape:window-width="961"
     inkscape:window-height="725"
     id="namedview3424"
     showgrid="false"
     inkscape:zoom="0.15"
     inkscape:cx="1457.1705"
     inkscape:cy="1512.322"
     inkscape:window-x="0"
     inkscape:window-y="0"
     inkscape:window-maximized="0"
     inkscape:current-layer="svg3422" />
  <g
     id="g3432"
     transform="translate(4.4043046,26.737682)">
    <path
       style="fill:#fbf6d3"
       d="m 1635.625,2623.7069 c -50.4139,-3.4008 -98.0415,-10.3013 -150.625,-21.8233 -10.6562,-2.335 -26.125,-5.1565 -34.375,-6.2701 -96.1676,-12.9809 -217.8846,-57.8454 -328.125,-120.9459 -202.45268,-115.882 -363.57948,-281.4521 -454.59666,-467.133 -49.95481,-101.9111 -78.32718,-206.1536 -86.76563,-318.7846 -2.10387,-28.0812 -0.77347,-89.7006 2.52245,-116.8305 14.63202,-120.4411 57.89215,-239.9167 128.78205,-355.6695 34.03401,-55.5725 75.20941,-109.1019 125.05779,-162.5792 9.99729,-10.7251 12.3803,-13.8988 10,-13.3179 -1.71875,0.4194 -11.5625,1.7772 -21.875,3.0173 -23.40368,2.8144 -110.58758,3.1725 -138.75,0.5698 -92.88786,-8.5843 -167.74149,-29.0222 -239.79411,-65.47276 C 294.14096,901.09667 172.7579,751.05776 84.471631,530.25397 72.908615,501.3349 72.849774,499.91588 83.090167,496.9389 c 11.195894,-3.25472 14.065639,-2.69492 25.747423,5.0226 37.14097,24.53706 127.37767,59.62138 201.78741,78.45558 110.58705,27.99121 197.49597,30.36132 259.71366,7.08269 8.61068,-3.22166 14.49805,-7.36642 29.84974,-21.01446 60.39565,-53.69324 143.18649,-94.36441 227.9366,-111.97431 81.3743,-16.90846 166.38653,-12.99443 234.3574,10.79001 19.4675,6.81206 45.5997,18.89471 60.0176,27.75005 6.5313,4.01144 17.7813,10.6684 25,14.79325 52.6437,30.08102 97.3346,61.27859 140,97.73043 20.5784,17.5814 49.3801,45.10877 58.5317,55.94202 4.5889,5.43188 14.1657,15.60962 21.282,22.61719 11.5389,11.36267 35.5515,40.75196 37.4267,45.80697 1.0551,2.84437 11.8221,18.91322 12.3316,18.40379 0.5177,-0.51782 -27.5619,-70.27961 -43.6096,-108.34471 -16.1267,-38.25204 -31.6548,-73.0656 -36.7259,-82.33835 -4.6355,-8.47615 -9.8596,-27.52674 -8.7492,-31.9056 1.0771,-4.2482 9.6257,-12.16744 16.5942,-15.3726 24.9346,-11.46869 70.8179,-7.40956 85.1893,7.53641 l 3.8031,3.95514 0.6731,26.875 c 1.4114,56.35087 9.536,110.01519 26.9676,178.125 7.338,28.67176 9.8042,36.84401 9.9562,32.99402 0.8993,-22.76906 4.5662,-49.05968 9.4806,-67.97409 10.7211,-41.2637 33.3577,-72.67704 55.3811,-76.85369 7.9243,-1.50279 11.6358,-3.36369 25.2175,-12.64345 48.1634,-32.9078 157.4031,-152.11956 244.0125,-266.28715 l 11.9591,-15.76438 -1.1944,-6.73562 c -0.6569,-3.7046 -3.9507,-19.41663 -7.3195,-34.9156 -3.3687,-15.49898 -6.7116,-33.35835 -7.4286,-39.6875 -2.3931,-21.12553 1.6521,-41.16193 13.4784,-66.75986 6.6759,-14.44974 11.231,-17.68404 25.7744,-18.3005 16.4282,-0.69635 34.2622,5.32602 53.3507,18.01602 9.6509,6.41589 12.7976,10.22361 12.6375,15.29226 -0.059,1.85325 -4.037,11.52579 -8.8411,21.49454 -10.8364,22.48609 -16.2818,38.0277 -23.4314,66.875 -7.5017,30.26751 -7.7655,34.40364 -3.7224,58.35318 4.6558,27.5784 5.5999,30.13143 17.064,46.14643 84.8304,118.50554 234.3707,207.25887 342.4108,203.22354 9.9687,-0.37234 22.7836,-1.6429 28.4774,-2.82347 l 10.3525,-2.1465 9.8372,-10.39242 c 18.7146,-19.77071 35.1501,-43.99366 52.6878,-77.65213 5.0986,-9.78525 9.5513,-17.79467 9.8951,-17.79869 0.969,-0.0113 21.3725,31.64205 29.3385,45.51485 31.6659,55.1469 72.7721,154.59672 109.9582,266.02675 49.1545,147.29312 85.2383,294.09556 79.7332,324.38416 l -1.1263,6.1963 10.4983,15.484 c 69.1132,101.9354 110.9321,256.0726 121.5426,447.984 4.253,76.9261 1.9849,168.3286 -5.6404,227.2855 -1.5631,12.0863 -1.6451,16.6126 -0.4489,24.7935 2.1658,14.8121 0.8168,54.3883 -2.4431,71.671 -14.2626,75.6149 -59.8276,158.8779 -121.9785,222.8965 -26.9825,27.7934 -50.9242,46.7463 -72.5915,57.4653 -16.1235,7.9763 -22.2514,9.6356 -35.5921,9.6369 -10.6374,0 -12.6048,-0.3743 -18.877,-3.6035 -3.8511,-1.9826 -8.1784,-4.5138 -9.6161,-5.625 l -2.6142,-2.0202 4.3412,-17.5 c 5.4535,-21.9849 10.9377,-53.8954 13.8563,-80.625 3.0679,-28.0971 3.0612,-96.3905 -0.013,-126.25 -11.746,-114.1069 -44.7487,-222.9643 -102.6961,-338.737 -56.8946,-113.6695 -131.7498,-220.7623 -228.0877,-326.3166 -7.2428,-7.9358 -19.5705,-21.717 -27.395,-30.625 -81.3655,-92.6338 -204.6143,-192.5327 -324.5238,-263.04183 -20.1801,-11.86632 -35.625,-20.38296 -35.625,-19.64443 0,0.30813 5.4844,4.67325 12.1875,9.70023 58.1718,43.62583 141.8518,114.80363 212.1311,180.43773 31.3584,29.2858 110.58,108.9358 136.24,136.9769 68.7605,75.1409 112.4942,131.8716 134.4255,174.375 4.9665,9.625 12.3455,23.7402 16.3979,31.3672 4.0524,7.627 7.368,14.421 7.368,15.0978 0,0.6767 5.7268,10.749 12.7261,22.3827 63.5994,105.7097 118.4394,298.1354 134.0969,470.5273 5.003,55.0837 6.3943,128.3625 3.2988,173.75 -7.2798,106.7385 -29.3169,196.5172 -67.0412,273.125 -18.4931,37.5544 -42.8458,75.5632 -52.2327,81.5226 -17.0976,10.8549 -42.368,17.585 -70.2229,18.7021 -27.8912,1.1185 -45.8154,-1.0333 -105.625,-12.6807 -69.3359,-13.5026 -96.6861,-12.3654 -118.125,4.9119 -16.1631,13.0256 -62.2575,31.4918 -110.625,44.3186 -32.6595,8.661 -73.2611,15.791 -111.25,19.5364 -24.1232,2.3783 -94.822,3.4271 -119.375,1.771 z"
       id="path3444"
       inkscape:connector-curvature="0" />
    <path
       style="fill:#fa914c"
       d="m 1635.625,2623.7069 c -50.4139,-3.4008 -98.0415,-10.3013 -150.625,-21.8233 -10.6562,-2.335 -26.125,-5.1565 -34.375,-6.2701 -96.1676,-12.9809 -217.8846,-57.8454 -328.125,-120.9459 -202.45268,-115.882 -363.57948,-281.4521 -454.59666,-467.133 -49.95481,-101.9111 -78.32718,-206.1536 -86.76563,-318.7846 -2.10387,-28.0812 -0.77347,-89.7006 2.52245,-116.8305 14.63202,-120.4411 57.89215,-239.9167 128.78205,-355.6695 34.03401,-55.5725 75.20941,-109.1019 125.05779,-162.5792 9.99729,-10.7251 12.3803,-13.8988 10,-13.3179 -1.71875,0.4194 -11.5625,1.7772 -21.875,3.0173 -23.40368,2.8144 -110.58758,3.1725 -138.75,0.5698 -92.88786,-8.5843 -167.74149,-29.0222 -239.79411,-65.47276 C 294.14096,901.09667 172.7579,751.05776 84.471631,530.25397 72.908615,501.3349 72.849774,499.91588 83.090167,496.9389 c 11.195894,-3.25472 14.065639,-2.69492 25.747423,5.0226 37.14097,24.53706 127.37767,59.62138 201.78741,78.45558 110.58705,27.99121 197.49597,30.36132 259.71366,7.08269 8.61068,-3.22166 14.49805,-7.36642 29.84974,-21.01446 60.39565,-53.69324 143.18649,-94.36441 227.9366,-111.97431 81.3743,-16.90846 166.38653,-12.99443 234.3574,10.79001 19.4675,6.81206 45.5997,18.89471 60.0176,27.75005 6.5313,4.01144 17.7813,10.6684 25,14.79325 52.6437,30.08102 97.3346,61.27859 140,97.73043 20.5784,17.5814 49.3801,45.10877 58.5317,55.94202 4.5889,5.43188 14.1657,15.60962 21.282,22.61719 11.5389,11.36267 35.5515,40.75196 37.4267,45.80697 1.0551,2.84437 11.8221,18.91322 12.3316,18.40379 0.5177,-0.51782 -27.5619,-70.27961 -43.6096,-108.34471 -16.1267,-38.25204 -31.6548,-73.0656 -36.7259,-82.33835 -4.6355,-8.47615 -9.8596,-27.52674 -8.7492,-31.9056 1.0771,-4.2482 9.6257,-12.16744 16.5942,-15.3726 24.9346,-11.46869 70.8179,-7.40956 85.1893,7.53641 l 3.8031,3.95514 0.6731,26.875 c 1.4114,56.35087 9.536,110.01519 26.9676,178.125 7.338,28.67176 9.8042,36.84401 9.9562,32.99402 0.8993,-22.76906 4.5662,-49.05968 9.4806,-67.97409 10.7211,-41.2637 33.3577,-72.67704 55.3811,-76.85369 7.9243,-1.50279 11.6358,-3.36369 25.2175,-12.64345 48.1634,-32.9078 157.4031,-152.11956 244.0125,-266.28715 l 11.9591,-15.76438 -1.1944,-6.73562 c -0.6569,-3.7046 -3.9507,-19.41663 -7.3195,-34.9156 -3.3687,-15.49898 -6.7116,-33.35835 -7.4286,-39.6875 -2.3931,-21.12553 1.6521,-41.16193 13.4784,-66.75986 6.6759,-14.44974 11.231,-17.68404 25.7744,-18.3005 16.4282,-0.69635 34.2622,5.32602 53.3507,18.01602 9.6509,6.41589 12.7976,10.22361 12.6375,15.29226 -0.059,1.85325 -4.037,11.52579 -8.8411,21.49454 -10.8364,22.48609 -16.2818,38.0277 -23.4314,66.875 -7.5017,30.26751 -7.7655,34.40364 -3.7224,58.35318 4.6558,27.5784 5.5999,30.13143 17.064,46.14643 84.8304,118.50554 234.3707,207.25887 342.4108,203.22354 9.9687,-0.37234 22.7836,-1.6429 28.4774,-2.82347 l 10.3525,-2.1465 9.8372,-10.39242 c 18.7146,-19.77071 35.1501,-43.99366 52.6878,-77.65213 5.0986,-9.78525 9.5513,-17.79467 9.8951,-17.79869 0.969,-0.0113 21.3725,31.64205 29.3385,45.51485 31.6659,55.1469 72.7721,154.59672 109.9582,266.02675 49.1545,147.29312 85.2383,294.09556 79.7332,324.38416 l -1.1263,6.1963 10.4983,15.484 c 69.1132,101.9354 110.9321,256.0726 121.5426,447.984 4.253,76.9261 1.9849,168.3286 -5.6404,227.2855 -1.5631,12.0863 -1.6451,16.6126 -0.4489,24.7935 2.1658,14.8121 0.8168,54.3883 -2.4431,71.671 -14.2626,75.6149 -59.8276,158.8779 -121.9785,222.8965 -26.9825,27.7934 -50.9242,46.7463 -72.5915,57.4653 -16.1235,7.9763 -22.2514,9.6356 -35.5921,9.6369 -10.6374,0 -12.6048,-0.3743 -18.877,-3.6035 -3.8511,-1.9826 -8.1784,-4.5138 -9.6161,-5.625 l -2.6142,-2.0202 4.3412,-17.5 c 5.4535,-21.9849 10.9377,-53.8954 13.8563,-80.625 3.0679,-28.0971 3.0612,-96.3905 -0.013,-126.25 -11.746,-114.1069 -44.7487,-222.9643 -102.6961,-338.737 -56.8946,-113.6695 -131.7498,-220.7623 -228.0877,-326.3166 -7.2428,-7.9358 -19.5705,-21.717 -27.395,-30.625 -81.3655,-92.6338 -204.6143,-192.5327 -324.5238,-263.04183 -20.1801,-11.86632 -35.625,-20.38296 -35.625,-19.64443 0,0.30813 5.4844,4.67325 12.1875,9.70023 58.1718,43.62583 141.8518,114.80363 212.1311,180.43773 31.3584,29.2858 110.58,108.9358 136.24,136.9769 68.7605,75.1409 112.4942,131.8716 134.4255,174.375 4.9665,9.625 12.3455,23.7402 16.3979,31.3672 4.0524,7.627 7.368,14.421 7.368,15.0978 0,0.6767 5.7268,10.749 12.7261,22.3827 63.5994,105.7097 118.4394,298.1354 134.0969,470.5273 5.003,55.0837 6.3943,128.3625 3.2988,173.75 -7.2798,106.7385 -29.3169,196.5172 -67.0412,273.125 -18.4931,37.5544 -42.8458,75.5632 -52.2327,81.5226 -17.0976,10.8549 -42.368,17.585 -70.2229,18.7021 -27.8912,1.1185 -45.8154,-1.0333 -105.625,-12.6807 -69.3359,-13.5026 -96.6861,-12.3654 -118.125,4.9119 -16.1631,13.0256 -62.2575,31.4918 -110.625,44.3186 -32.6595,8.661 -73.2611,15.791 -111.25,19.5364 -24.1232,2.3783 -94.822,3.4271 -119.375,1.771 z m -219.6875,-319.4315 c 3.5113,-1.4243 4.0625,-2.2502 4.0625,-6.0867 0,-4.9706 0.015,-4.9651 -8.3421,-3.0723 -7.3795,1.6713 -12.4176,0.086 -14.1424,-4.4508 -0.8071,-2.1229 -0.3816,-11.6775 1.323,-29.7099 1.382,-14.6193 2.7535,-27.2838 3.0479,-28.1432 0.3744,-1.0931 3.8826,-1.5625 11.6786,-1.5625 10.4995,0 11.187,-0.1625 11.8971,-2.8125 1.8965,-7.0766 1.7262,-7.1875 -11.0401,-7.1875 l -11.8279,0 0.8267,-8.4375 c 1.5018,-15.3276 1.7222,-14.6376 -4.8098,-15.0614 l -5.764,-0.3739 -0.7847,4.7489 c -0.4317,2.6119 -0.7987,6.7176 -0.8155,9.1239 -0.06,8.5979 -0.9452,9.8374 -7.3135,10.2492 -5.7319,0.3708 -5.8134,0.4374 -6.1963,5.0633 l -0.3879,4.6875 5.7004,0 c 6.8491,0 6.618,-1.7798 3.7136,28.5955 -1.0927,11.4287 -1.7785,24.5575 -1.524,29.1751 0.3958,7.179 0.9769,8.9321 4.0104,12.0984 5.7446,5.9961 16.5391,7.2727 26.688,3.1564 z m 102.9309,-0.6259 c 2.4714,-1.2388 6.2682,-4.2736 8.4375,-6.7444 l 3.9441,-4.4921 0,6.2935 0,6.2935 5.4419,0 5.4419,0 1.4034,-14.0625 c 4.5733,-45.8209 4.6566,-48.1003 2.0335,-55.6039 -4.3858,-12.5467 -16.0112,-18.0084 -32.5888,-15.3104 -14.3584,2.3369 -22.9263,9.3149 -24.9119,20.2893 l -0.8482,4.6875 7.0141,0 c 5.5884,0 7.0141,-0.4054 7.0141,-1.9946 0,-3.5613 4.1689,-9.1693 8.259,-11.1102 5.1111,-2.4253 16.6204,-2.4656 20.0406,-0.07 4.2155,2.9527 5.7713,8.4827 5.2562,18.6833 -0.2591,5.1277 -0.7647,9.617 -1.1237,9.976 -0.3591,0.3591 -2.8812,-0.1409 -5.605,-1.111 -2.7256,-0.9708 -9.7592,-1.7884 -15.6442,-1.8186 -9.0999,-0.046 -11.6718,0.4333 -17.2714,3.2237 -9.1887,4.579 -13.0789,10.743 -13.6984,21.7058 -0.554,9.8045 1.3039,14.4352 7.77,19.3672 7.3738,5.6241 20.4224,6.4158 29.6353,1.7979 z m -18.7308,-9.1439 c -9.2631,-5.1341 -7.971,-20.3647 2.1465,-25.3034 5.3079,-2.5911 16.7315,-2.8592 24.9034,-0.5846 4.5926,1.2784 5.3088,1.938 5.285,4.868 -0.036,4.5126 -3.9234,12.7281 -7.6371,16.1423 -6.6021,6.0693 -18.3586,8.3912 -24.6978,4.8777 z m 202.0499,9.7698 c 3.5113,-1.4243 4.0625,-2.2502 4.0625,-6.0867 0,-4.9706 0.015,-4.9651 -8.3421,-3.0723 -7.3795,1.6713 -12.4176,0.086 -14.1424,-4.4508 -0.8071,-2.1229 -0.3816,-11.6775 1.323,-29.7099 1.382,-14.6193 2.7535,-27.2838 3.0479,-28.1432 0.3744,-1.0931 3.8826,-1.5625 11.6786,-1.5625 10.4995,0 11.187,-0.1625 11.8971,-2.8125 1.8965,-7.0766 1.7262,-7.1875 -11.0401,-7.1875 l -11.8279,0 0.8267,-8.4375 c 1.5018,-15.3276 1.7222,-14.6376 -4.8098,-15.0614 l -5.764,-0.3739 -0.7847,4.7489 c -0.4317,2.6119 -0.7987,6.7176 -0.8155,9.1239 -0.06,8.5979 -0.9452,9.8374 -7.3135,10.2492 -5.7319,0.3708 -5.8134,0.4374 -6.1963,5.0633 l -0.3879,4.6875 5.7004,0 c 6.8491,0 6.618,-1.7798 3.7136,28.5955 -1.0927,11.4287 -1.7785,24.5575 -1.524,29.1751 0.3958,7.179 0.9769,8.9321 4.0104,12.0984 5.7446,5.9961 16.5391,7.2727 26.688,3.1564 z m 59.1809,-0.6259 c 2.4714,-1.2388 6.2682,-4.2736 8.4375,-6.7444 l 3.9441,-4.4921 0,6.2935 0,6.2935 5.4419,0 5.4419,0 1.4034,-14.0625 c 4.5733,-45.8209 4.6566,-48.1003 2.0335,-55.6039 -4.3858,-12.5467 -16.0112,-18.0084 -32.5888,-15.3104 -14.3584,2.3369 -22.9263,9.3149 -24.9119,20.2893 l -0.8482,4.6875 7.0141,0 c 5.5884,0 7.0141,-0.4054 7.0141,-1.9946 0,-3.5613 4.1689,-9.1693 8.259,-11.1102 5.1111,-2.4253 16.6204,-2.4656 20.0406,-0.07 4.2155,2.9527 5.7713,8.4827 5.2562,18.6833 -0.2591,5.1277 -0.7647,9.617 -1.1237,9.976 -0.3591,0.3591 -2.8812,-0.1409 -5.605,-1.111 -2.7256,-0.9708 -9.7592,-1.7884 -15.6442,-1.8186 -9.0999,-0.046 -11.6718,0.4333 -17.2714,3.2237 -9.1887,4.579 -13.0789,10.743 -13.6984,21.7058 -0.554,9.8045 1.3039,14.4352 7.77,19.3672 7.3738,5.6241 20.4224,6.4158 29.6353,1.7979 z m -18.7308,-9.1439 c -9.2631,-5.1341 -7.971,-20.3647 2.1465,-25.3034 5.3079,-2.5911 16.7315,-2.8592 24.9034,-0.5846 4.5926,1.2784 5.3088,1.938 5.285,4.868 -0.036,4.5126 -3.9234,12.7281 -7.6371,16.1423 -6.6021,6.0693 -18.3586,8.3912 -24.6978,4.8777 z M 1940,2303.6888 c 5.0217,-2.5365 10.0727,-7.6412 12.9265,-13.0638 1.9636,-3.7315 1.9736,-3.7052 2.0235,5.3125 l 0.05,9.0625 4.9234,0 c 4.8493,0 4.934,-0.08 5.6218,-5.3125 0.7458,-5.6733 4.4548,-45.898 4.4548,-48.3129 0,-1.0391 -5.147,-1.3449 -18.4375,-1.0955 l -18.4375,0.3459 -0.388,4.6875 -0.3879,4.6875 10.5981,0 c 14.1844,0 14.4388,0.1322 13.1837,6.8511 -1.5125,8.0955 -4.5124,14.5024 -9.0068,19.2354 -5.1414,5.4145 -10.4979,7.6635 -18.2526,7.6635 -11.1135,0 -16.7138,-3.5886 -22.4328,-14.375 -3.0536,-5.7595 -3.3137,-7.4273 -3.3137,-21.25 0,-17.6534 2.6721,-27.3374 10.334,-37.4519 7.4917,-9.8897 13.7895,-13.6316 23.9049,-14.2031 9.8885,-0.5588 13.3537,0.8371 20.561,8.2822 l 4.7998,4.9584 5.2002,-1.9665 c 2.8601,-1.0816 5.4165,-2.1234 5.6808,-2.3152 1.4725,-1.0682 -3.5002,-8.7262 -8.7048,-13.4057 -7.5607,-6.7976 -14.2575,-8.7763 -27.172,-8.0288 -11.5874,0.6708 -18.5855,3.6472 -27.5724,11.7272 -11.6676,10.4903 -17.7419,23.3728 -20.3865,43.2364 -1.6769,12.5946 -0.1905,26.2801 3.8452,35.4035 2.8029,6.3365 9.979,14.5659 15.8842,18.2154 8.1395,5.0305 21.7592,5.527 30.5006,1.1118 z m -642.301,-12.4568 5.426,-13.768 19.9605,0.3305 19.9604,0.3305 2.5749,13.125 2.5748,13.125 6.5273,0.3779 c 3.5899,0.2077 6.5271,0.12 6.5271,-0.195 0,-0.7739 -21.1699,-103.1749 -22.0795,-106.8011 -0.6653,-2.6519 -1.2922,-2.8405 -8.3106,-2.5 l -7.591,0.3682 -2.7952,6.875 c -1.5373,3.7813 -11.4991,28.3906 -22.1372,54.6875 l -19.342,47.8125 6.6392,0 6.6392,0 5.4261,-13.768 z m 12.1869,-30.9195 c 12.798,-32.3446 19.3774,-48.1178 19.6571,-47.1256 0.7776,2.7567 10.457,50.7594 10.457,51.8587 0,0.7107 -6.6539,1.2044 -16.2317,1.2044 l -16.2318,0 2.3494,-5.9375 z m 144.4847,20.625 c 1.2327,-13.2344 3.7175,-39.8125 5.522,-59.0625 l 3.2809,-35 -5.4711,-0.3865 c -3.0091,-0.2125 -5.818,-0.04 -6.2421,0.3846 -0.6724,0.6724 -11.28,107.8703 -11.4109,115.3144 -0.045,2.537 0.5447,2.8125 6.0154,2.8125 l 6.0648,0 2.241,-24.0625 z m 132.3141,0.2644 c 2.4931,-27.7707 4.6882,-35.3091 12.6035,-43.2816 6.2281,-6.2732 12.4613,-7.9303 19.9144,-5.2944 11.0382,3.9037 12.3131,11.1635 8.5944,48.9366 l -2.3074,23.4375 5.9487,0 c 7.0596,0 6.2641,2.6121 9.3068,-30.5576 2.5597,-27.9025 2.0259,-36.3235 -2.794,-44.0835 -4.6625,-7.5065 -10.9245,-10.7812 -20.4452,-10.6915 -9.25,0.088 -14.8914,2.8226 -21.9021,10.6203 l -5.6038,6.2327 0,-7.6352 0,-7.6352 -4.9234,0 c -5.857,0 -4.8956,-4.4879 -9.4437,44.0825 -4.1054,43.8428 -4.4096,39.6675 2.8912,39.6675 l 6.0242,0 2.1365,-23.7981 z m 411.0143,10.0301 5.426,-13.768 19.9605,0.3305 19.9604,0.3305 2.5749,13.125 2.5748,13.125 6.5273,0.3779 c 3.5899,0.2077 6.5271,0.12 6.5271,-0.195 0,-0.7739 -21.1699,-103.1749 -22.0795,-106.8011 -0.6653,-2.6519 -1.2922,-2.8405 -8.3106,-2.5 l -7.591,0.3682 -2.7952,6.875 c -1.5373,3.7813 -11.4991,28.3906 -22.1372,54.6875 l -19.342,47.8125 6.6392,0 6.6392,0 5.4261,-13.768 z m 12.1869,-30.9195 c 12.798,-32.3446 19.3774,-48.1178 19.6571,-47.1256 0.7776,2.7567 10.457,50.7594 10.457,51.8587 0,0.7107 -6.6539,1.2044 -16.2317,1.2044 l -16.2318,0 2.3494,-5.9375 z M 1849.5,2270.75 c 3.6276,-3.6276 4.25,-5.1103 4.25,-10.125 0,-5.0147 -0.6224,-6.4974 -4.25,-10.125 -3.7436,-3.7436 -5.0245,-4.25 -10.75,-4.25 -5.7255,0 -7.0064,0.5064 -10.75,4.25 -3.6276,3.6276 -4.25,5.1103 -4.25,10.125 0,5.0147 0.6224,6.4974 4.25,10.125 3.7436,3.7436 5.0245,4.25 10.75,4.25 5.7255,0 7.0064,-0.5064 10.75,-4.25 z m -788.7895,-206.4325 c 15.6223,-4.0325 31.7934,-13.4161 31.7848,-18.4436 -0.01,-3.7665 -4.7502,-11.2558 -6.6088,-10.4336 -19.2021,8.4927 -30.4318,10.783 -42.1702,8.6 -15.301,-2.8455 -24.557,-10.1627 -31.2735,-24.7225 -10.3329,-22.3992 -10.1053,-61.8448 0.4767,-82.6354 5.5903,-10.9835 13.0431,-15.4324 25.8524,-15.4324 14.9781,0 22.3094,8.1146 24.5492,27.1725 l 0.7986,6.7941 8.8776,-0.8876 c 14.8386,-1.4835 14.0053,-0.4216 14.8407,-18.912 0.3986,-8.8231 1.1097,-17.0301 1.5803,-18.2377 0.6865,-1.762 -0.468,-2.774 -5.8439,-5.123 -15.2287,-6.6543 -26.6971,-8.8587 -46.0744,-8.8562 -16.6187,0 -18.9551,0.2925 -28.113,3.4931 -34.38489,12.0176 -53.17711,39.2404 -53.1153,76.9443 0.028,17.0401 2.4177,28.1561 8.89229,41.3625 10.83488,22.1002 31.97911,37.115 58.00571,41.1904 9.5779,1.4997 28.0442,0.5785 37.5408,-1.8729 z m 130.8606,0.085 c 24.4521,-6.3711 38.8783,-22.1885 42.424,-46.515 3.4487,-23.6615 -6.3058,-45.1919 -24.9851,-55.1477 -11.7546,-6.2653 -21.1763,-8.2377 -39.01,-8.1668 -13.2444,0.053 -17.0998,0.5455 -25.3049,3.2345 -26.7914,8.7804 -39.6414,26.5504 -39.6803,54.8736 -0.041,30.1877 16.473,48.5414 48.1487,53.5113 9.6472,1.5136 29.2317,0.601 38.4076,-1.7899 z m -27.3271,-18.0281 c -4.6116,-2.8121 -8.0852,-8.2435 -11.2713,-17.6241 -3.3053,-9.7317 -3.3474,-36.7843 -0.07,-45.2771 5.9453,-15.4078 20.4489,-16.2555 28.9826,-1.6938 8.8962,15.1802 10.3409,42.6694 3.0356,57.7601 -4.2763,8.8336 -12.7857,11.6465 -20.6765,6.8349 z m 177.6013,17.9561 c 23.4658,-6.1121 41.0552,-24.0498 45.7478,-46.6537 2.2438,-10.8079 0.956,-30.7413 -2.4915,-38.5688 -9.8222,-22.3006 -41.4243,-31.5755 -67.3001,-19.7516 -3.9471,1.8035 -8.864,4.9106 -10.9265,6.9045 l -3.75,3.6252 0,-34.2887 0,-34.2887 -3.2116,-3.2123 -3.2115,-3.2125 -9.2885,2.5132 c -10.3124,2.7903 -27.0458,5.1032 -36.9198,5.1032 l -6.4468,0 -1.3984,5.5535 c -2.3129,9.1852 -1.8928,11.791 2.0391,12.6492 7.0404,1.537 10.4813,3.4978 12.296,7.007 1.5876,3.0701 1.8116,11.7488 1.5035,58.2614 -0.3351,50.5945 -0.5369,55.0059 -2.7167,59.3937 -2.3064,4.6425 -2.3064,4.7789 0,6.6368 15.0308,12.1081 61.4148,18.7517 86.075,12.3286 z M 1312.5,2049.1876 c -1.0312,-0.4122 -3.4219,-2.1908 -5.3125,-3.9525 -3.4216,-3.188 -3.4375,-3.2807 -3.4375,-20.0541 0,-19.5351 1.5591,-30.2089 5.4173,-37.087 5.8243,-10.3832 17.9608,-13.9009 25.647,-7.4335 6.3711,5.3609 8.3134,12.6743 8.2908,31.2145 -0.017,14.8771 -0.2958,16.8421 -3.2865,23.2588 -4.3593,9.3531 -10.3737,13.9268 -18.9712,14.427 -3.5599,0.207 -7.3161,0.039 -8.3474,-0.3732 z m 183.0953,15.1427 c 23.4658,-6.1122 41.0552,-24.0498 45.7478,-46.6538 2.2438,-10.8079 0.956,-30.7412 -2.4915,-38.5687 -9.8222,-22.3007 -41.4243,-31.5755 -67.3001,-19.7517 -3.9471,1.8035 -8.864,4.9106 -10.9265,6.9045 l -3.75,3.6253 0,-34.2888 0,-34.2886 -3.2116,-3.2124 -3.2115,-3.2125 -9.2885,2.5133 c -10.3124,2.7902 -27.0458,5.1031 -36.9198,5.1031 l -6.4468,0 -1.3984,5.5535 c -2.3129,9.1853 -1.8928,11.791 2.0391,12.6493 7.0404,1.537 10.4813,3.4977 12.296,7.007 1.5876,3.0701 1.8116,11.7487 1.5035,58.2613 -0.3351,50.5945 -0.5369,55.0059 -2.7167,59.3938 -2.3064,4.6425 -2.3064,4.7789 0,6.6367 15.0308,12.1082 61.4148,18.7518 86.075,12.3287 z m -29.3453,-15.1427 c -1.0312,-0.4122 -3.4219,-2.1908 -5.3125,-3.9525 -3.4216,-3.188 -3.4375,-3.2807 -3.4375,-20.0541 0,-19.5351 1.5591,-30.2089 5.4173,-37.087 5.8243,-10.3832 17.9608,-13.9009 25.647,-7.4335 6.3711,5.3609 8.3134,12.6743 8.2908,31.2145 -0.017,14.8771 -0.2958,16.8421 -3.2865,23.2588 -4.3593,9.3531 -10.3737,13.9268 -18.9712,14.427 -3.5599,0.207 -7.3161,0.039 -8.3474,-0.3732 z m 268.446,15.1439 c 4.6359,-1.0696 12.3665,-4.0299 17.179,-6.5785 8.4624,-4.4815 8.7384,-4.7761 8.3965,-8.9606 -0.3819,-4.6741 -4.2197,-12.0856 -6.0321,-11.6489 -0.6129,0.1478 -4.7706,1.7815 -9.2394,3.6306 -9.701,4.014 -23.5241,5.314 -31.817,2.9922 -3.0681,-0.859 -7.745,-3.4164 -10.393,-5.683 -4.9281,-4.2183 -10.1642,-13.624 -8.5084,-15.2835 0.5075,-0.5087 13.9549,-1.1083 29.883,-1.3327 32.7885,-0.4618 32.5334,-0.3855 36.5703,-10.9558 1.7459,-4.5715 1.8365,-6.6169 0.6147,-13.8742 -4.8035,-28.5326 -27.5528,-45.064 -58.2246,-42.3103 -30.0617,2.699 -49.233,17.7791 -54.4305,42.8155 -2.1667,10.437 -0.9506,29.3982 2.4478,38.1661 5.0426,13.01 18.3637,24.6712 32.4678,28.4221 15.1269,4.023 35.2277,4.2595 51.0859,0.601 z m -42.7946,-68.394 c 1.8295,-15.9356 7.244,-23.9375 16.1974,-23.9375 8.1848,0 12.8775,7.8484 15.0598,25.1875 l 0.826,6.5625 -16.49,0 -16.4901,0 0.8969,-7.8125 z m -56.9151,65.3125 c -0.013,-2.4062 -0.3492,-6.4028 -0.7592,-8.881 -0.6738,-4.0742 -1.3016,-4.6732 -6.5487,-6.25 -10.5009,-3.1556 -10.1743,-0.741 -10.1764,-75.2216 0,-67.4474 -0.1956,-70.1443 -5.3405,-74.4109 -1.6377,-1.3583 -3.1144,-1.296 -8.6311,0.3632 -8.4573,2.5439 -29.5039,5.5976 -38.7841,5.6274 l -7.1288,0.023 -1.3017,4.6875 c -0.716,2.5782 -1.305,6.5075 -1.3088,8.732 -0.013,3.7409 0.4075,4.1489 5.5153,5.435 3.0371,0.7648 6.834,2.7872 8.4375,4.4941 l 2.9152,3.1037 0,54.6418 c 0,62.1947 0.316,60.1887 -9.8871,62.7579 -6.0014,1.5111 -6.9879,3.504 -6.9879,14.1168 l 0,5.1562 40,0 40,0 -0.014,-4.375 z m 232.2346,2.2166 c 0.1901,-0.8858 -0.098,-4.6873 -0.6381,-8.4476 l -0.984,-6.8369 -7.4869,-1.9791 c -10.6918,-2.8261 -13.0181,-4.4301 -15.9501,-10.9974 -3.1435,-7.0411 -3.7372,-24.3852 -1.091,-31.8753 5.5707,-15.7683 19.135,-17.8889 21.0921,-3.2975 l 0.7011,5.2268 9.4573,-0.8862 c 15.5352,-1.4558 14.6551,-0.3859 15.5911,-18.9546 0.4449,-8.824 1.1521,-18.0427 1.5719,-20.4857 0.7343,-4.2742 0.5591,-4.5337 -4.6414,-6.875 -7.5609,-3.404 -18.7909,-3.173 -25.8994,0.5328 -7.207,3.7569 -16.0569,12.7575 -18.728,19.0467 l -2.1549,5.0739 0.033,-11.4582 c 0.031,-10.9643 -0.1162,-11.5859 -3.4023,-14.4183 -3.1743,-2.7356 -3.7425,-2.8315 -7.5,-1.2651 -6.0817,2.5352 -17.4739,4.4737 -32.5302,5.5351 -7.4056,0.5221 -14.0625,1.5471 -14.793,2.2776 -0.7305,0.7305 -1.6346,4.7067 -2.009,8.8358 l -0.6807,7.5074 5.0174,0.8477 c 6.2313,1.0528 9.9517,4.3975 10.9783,9.8699 0.4338,2.3117 0.6003,14.0125 0.3702,26.0017 -0.4885,25.442 -1.2439,27.6252 -10.353,29.9188 l -5.5187,1.3896 -0.846,7.8991 c -0.4652,4.3447 -0.5576,8.3657 -0.2052,8.9358 0.3524,0.5701 20.8037,0.9134 45.4475,0.7629 35.3762,-0.2162 44.8796,-0.6129 45.1527,-1.8847 z M 1060.946,1778.0815 c 4.6359,-1.0696 12.3665,-4.0299 17.179,-6.5785 8.4624,-4.4815 8.7384,-4.7761 8.3965,-8.9606 -0.3819,-4.6741 -4.2198,-12.0856 -6.0322,-11.6489 -0.6129,0.1478 -4.7705,1.7815 -9.2393,3.6306 -9.7009,4.014 -23.5241,5.314 -31.8171,2.9922 -3.068,-0.859 -7.7448,-3.4164 -10.3929,-5.683 -4.9281,-4.2183 -10.1643,-13.624 -8.5084,-15.2835 0.5075,-0.5087 13.9549,-1.1083 29.8831,-1.3327 32.7884,-0.4618 32.5333,-0.3855 36.5702,-10.9558 1.7459,-4.5715 1.8365,-6.6169 0.6147,-13.8742 -4.8034,-28.5326 -27.5528,-45.064 -58.2246,-42.3103 -30.06174,2.699 -49.23296,17.7791 -54.43049,42.8155 -2.16671,10.437 -0.95065,29.3982 2.44775,38.1661 5.04265,13.01 18.36373,24.6712 32.46784,28.4221 15.1269,4.023 35.2277,4.2595 51.0859,0.601 z m -42.7946,-68.394 c 1.8295,-15.9356 7.2439,-23.9375 16.1974,-23.9375 8.1849,0 12.8775,7.8484 15.0598,25.1875 l 0.826,6.5625 -16.49,0 -16.4901,0 0.8969,-7.8125 z m 199.3559,64.151 c 13.9775,-1.6729 14.9927,-2.5415 14.9927,-12.8274 0,-6.5048 -0.269,-7.2611 -2.5822,-7.2611 -3.6271,0 -7.1081,-2.0857 -8.8203,-5.285 -0.8702,-1.626 -1.807,-12.5956 -2.3194,-27.1589 -0.7517,-21.3654 -1.2092,-25.2322 -3.6461,-30.8153 -3.4064,-7.8046 -10.0774,-14.5159 -17.8278,-17.9361 -14.0369,-6.194 -49.6889,-6.0707 -73.5542,0.2543 -10.6066,2.8111 -10.6249,2.823 -10.5555,6.8785 0.038,2.2344 0.1788,9.3596 0.3125,15.8339 l 0.243,11.7715 6.3115,1.3535 c 3.4714,0.7445 9.3012,1.3536 12.9551,1.3536 l 6.6436,0 0.7715,-5.629 c 1.6848,-12.2918 7.8826,-19.7876 16.3609,-19.7876 10.03,0 15.5342,5.8924 16.6125,17.7842 l 0.6762,7.457 -4.8531,0.8461 c -34.3729,5.9937 -45.8914,9.9757 -57.7712,19.9719 -11.6261,9.7828 -11.9998,32.8488 -0.6765,41.7566 6.3551,4.9997 11.9462,6.6288 24.9887,7.281 9.8241,0.4914 14.0586,0.1627 18.9863,-1.474 8.7648,-2.9112 16.1527,-8.1562 20.4034,-14.4855 l 3.5911,-5.3469 0,7.7842 c 0,6.8748 0.4125,8.1968 3.53,11.3143 l 3.53,3.53 9.9148,-2.8717 c 5.4531,-1.5795 15.2552,-3.511 21.7825,-4.2921 z m -65.8631,-20.0972 c -6.1882,-2.4933 -7.2091,-11.3926 -2.0151,-17.5653 3.5717,-4.2448 8.4467,-6.7542 18.1834,-9.3605 l 5.9375,-1.5893 -0.01,5.1994 c -0.015,11.1084 -5.392,19.9508 -14.1369,23.2478 -4.0674,1.5335 -4.3192,1.5356 -7.9619,0.068 z m 177.2324,24.2527 c 3.7117,-1.0899 9.4782,-3.4553 12.8144,-5.2564 5.8965,-3.1832 6.0481,-3.4085 5.4251,-8.0538 -0.3525,-2.6285 -1.5495,-6.1655 -2.6598,-7.8602 -1.981,-3.0233 -2.1059,-3.0437 -6.675,-1.0865 -6.3453,2.7182 -23.5905,3.7648 -29.5615,1.7942 -6.99,-2.3069 -12.4258,-7.7874 -16.425,-16.5602 -3.1804,-6.9762 -3.575,-9.232 -3.5595,-20.3461 0.021,-15.6284 2.7552,-25.6155 8.6152,-31.4755 9.5571,-9.5571 18.9876,-2.3034 21.2348,16.3334 l 0.8872,7.3579 7.7013,-0.763 c 4.2356,-0.4198 9.8106,-1.3667 12.3887,-2.1042 l 4.6875,-1.3411 0,-8.4616 c 0,-4.654 0.6011,-11.7139 1.336,-15.6886 0.7348,-3.9749 1.0536,-7.5094 0.7085,-7.8545 -2.2722,-2.2723 -19.2569,-6.8895 -29.7192,-8.0793 -35.9182,-4.0842 -61.8882,10.9238 -70.4938,40.7383 -2.9219,10.1232 -2.0248,29.6718 1.8226,39.7152 8.2067,21.4225 31.6907,33.1149 63.3475,31.5398 6.257,-0.3114 14.4133,-1.4578 18.125,-2.5478 z m -424.19229,-7.1011 c -0.3338,-4.6651 -0.8641,-8.7394 -1.17845,-9.0536 -0.31435,-0.3144 -3.62238,-1.1434 -7.3512,-1.8423 -7.8674,-1.4746 -12.03292,-4.1911 -15.52966,-10.1276 -2.37934,-4.0395 -2.51749,-6.8479 -2.86225,-58.1886 l -0.36224,-53.9443 5.02259,-0.8485 c 11.60959,-1.9614 19.64121,2.5061 25.34896,14.1001 3.95154,8.0268 4.10294,8.892 4.10294,23.449 0,14.3434 -0.19134,15.486 -3.75,22.3925 -4.23641,8.2219 -9.54555,11.9204 -17.11136,11.9204 -4.27621,0 -4.71294,0.3336 -5.42824,4.1465 -0.42784,2.2805 -0.59395,6.045 -0.36914,8.3655 0.35283,3.6419 1.00723,4.3757 4.78374,5.3652 6.9197,1.813 24.66685,0.2655 32.92959,-2.8713 13.75414,-5.2217 24.87765,-16.78 30.99686,-32.2089 2.40285,-6.0585 2.8445,-9.5009 2.8445,-22.172 0,-12.6813 -0.44077,-16.1115 -2.85126,-22.1901 -6.36619,-16.0538 -18.74051,-25.6834 -36.41969,-28.3417 -4.46875,-0.6718 -29.92187,-1.1446 -56.5625,-1.0505 l -48.4375,0.1712 0.0137,4.4555 c 0.008,2.4506 0.34596,6.4636 0.75199,8.9178 0.66407,4.0139 1.2867,4.6089 6.19749,5.9223 10.03952,2.6852 9.85718,1.7049 10.30491,55.402 0.4338,52.0261 -0.23577,59.9526 -5.45059,64.526 -1.76384,1.5469 -4.26042,2.8125 -5.54799,2.8125 -4.41907,0 -6.26957,3.4391 -6.26957,11.6517 l 0,7.7233 46.3956,0 46.3956,0 -0.60689,-8.4821 z M 1431.243,1775 c -0.014,-8.2175 -2.1554,-13.1504 -6.5515,-15.0852 -6.0257,-2.6522 -7.5105,-8.415 -6.9354,-26.919 0.436,-14.0269 0.7634,-15.7247 4.4933,-23.301 4.5642,-9.2715 8.5811,-12.5357 15.426,-12.5357 11.616,0 14.2117,6.0169 14.1681,32.8409 -0.036,22.1768 -1.5408,27.9093 -7.9619,30.333 -3.9667,1.4973 -5.132,4.6504 -5.1312,13.8858 l 5e-4,5.1562 35.6248,0 35.625,0 -0.014,-3.75 c -0.036,-9.5212 -1.4678,-13.3491 -5.6466,-15.0951 -2.2203,-0.9278 -4.4994,-2.6921 -5.0647,-3.9208 -0.5653,-1.2287 -1.3572,-15.1716 -1.7598,-30.9841 -0.676,-26.553 -0.9555,-29.2521 -3.6566,-35.3216 -8.1489,-18.3105 -32.8945,-26.2413 -55.4948,-17.7855 -7.8793,2.948 -16.3171,9.7931 -19.3375,15.6872 -2.0758,4.0509 -2.1375,2.9555 -1.7504,-31.0656 0.416,-36.5736 -0.161,-42.3377 -4.6445,-46.3954 -2.2325,-2.0202 -2.8302,-2.0303 -9.0734,-0.1526 -8.4816,2.551 -29.5197,5.6058 -38.8121,5.6356 l -7.1287,0.023 -1.3018,4.6875 c -0.716,2.5782 -1.305,6.4758 -1.3087,8.6613 -0.013,3.7264 0.407,4.0942 6.64,5.9061 10.6446,3.0945 10.228,0.54 10.228,62.719 0,53.0208 -0.053,54.1638 -2.6282,57.6224 -1.7063,2.2911 -4.4022,3.9105 -7.6865,4.6172 -5.5562,1.1957 -6.5603,3.3012 -6.5603,13.7553 l 0,5.1562 38.125,0 38.125,0 -0.012,-4.375 z"
       id="path3442"
       inkscape:connector-curvature="0" />
    <path
       style="fill:#f46b58"
       d="m 1635.625,2623.7069 c -50.4139,-3.4008 -98.0415,-10.3013 -150.625,-21.8233 -10.6562,-2.335 -26.125,-5.1565 -34.375,-6.2701 -96.1676,-12.9809 -217.8846,-57.8454 -328.125,-120.9459 -202.45268,-115.882 -363.57948,-281.4521 -454.59666,-467.133 -49.95481,-101.9111 -78.32718,-206.1536 -86.76563,-318.7846 -2.10387,-28.0812 -0.77347,-89.7006 2.52245,-116.8305 14.63202,-120.4411 57.89215,-239.9167 128.78205,-355.6695 34.03401,-55.5725 75.20941,-109.1019 125.05779,-162.5792 9.99729,-10.7251 12.3803,-13.8988 10,-13.3179 -1.71875,0.4194 -11.5625,1.7772 -21.875,3.0173 -23.40368,2.8144 -110.58758,3.1725 -138.75,0.5698 -92.88786,-8.5843 -167.74149,-29.0222 -239.79411,-65.47276 C 294.14096,901.09667 172.7579,751.05776 84.471631,530.25397 72.908615,501.3349 72.849774,499.91588 83.090167,496.9389 c 11.195894,-3.25472 14.065639,-2.69492 25.747423,5.0226 37.14097,24.53706 127.37767,59.62138 201.78741,78.45558 110.58705,27.99121 197.49597,30.36132 259.71366,7.08269 8.61068,-3.22166 14.49805,-7.36642 29.84974,-21.01446 60.39565,-53.69324 143.18649,-94.36441 227.9366,-111.97431 81.3743,-16.90846 166.38653,-12.99443 234.3574,10.79001 19.4675,6.81206 45.5997,18.89471 60.0176,27.75005 6.5313,4.01144 17.7813,10.6684 25,14.79325 52.6437,30.08102 97.3346,61.27859 140,97.73043 20.5784,17.5814 49.3801,45.10877 58.5317,55.94202 4.5889,5.43188 14.1657,15.60962 21.282,22.61719 11.5389,11.36267 35.5515,40.75196 37.4267,45.80697 1.0551,2.84437 11.8221,18.91322 12.3316,18.40379 0.5177,-0.51782 -27.5619,-70.27961 -43.6096,-108.34471 -16.1267,-38.25204 -31.6548,-73.0656 -36.7259,-82.33835 -4.6355,-8.47615 -9.8596,-27.52674 -8.7492,-31.9056 1.0771,-4.2482 9.6257,-12.16744 16.5942,-15.3726 24.9346,-11.46869 70.8179,-7.40956 85.1893,7.53641 l 3.8031,3.95514 0.6731,26.875 c 1.4114,56.35087 9.536,110.01519 26.9676,178.125 7.338,28.67176 9.8042,36.84401 9.9562,32.99402 0.8993,-22.76906 4.5662,-49.05968 9.4806,-67.97409 10.7211,-41.2637 33.3577,-72.67704 55.3811,-76.85369 7.9243,-1.50279 11.6358,-3.36369 25.2175,-12.64345 48.1634,-32.9078 157.4031,-152.11956 244.0125,-266.28715 l 11.9591,-15.76438 -1.1944,-6.73562 c -0.6569,-3.7046 -3.9507,-19.41663 -7.3195,-34.9156 -3.3687,-15.49898 -6.7116,-33.35835 -7.4286,-39.6875 -2.3931,-21.12553 1.6521,-41.16193 13.4784,-66.75986 6.6759,-14.44974 11.231,-17.68404 25.7744,-18.3005 16.4282,-0.69635 34.2622,5.32602 53.3507,18.01602 9.6509,6.41589 12.7976,10.22361 12.6375,15.29226 -0.059,1.85325 -4.037,11.52579 -8.8411,21.49454 -10.8364,22.48609 -16.2818,38.0277 -23.4314,66.875 -7.5017,30.26751 -7.7655,34.40364 -3.7224,58.35318 4.6558,27.5784 5.5999,30.13143 17.064,46.14643 84.8304,118.50554 234.3707,207.25887 342.4108,203.22354 9.9687,-0.37234 22.7836,-1.6429 28.4774,-2.82347 l 10.3525,-2.1465 9.8372,-10.39242 c 18.7146,-19.77071 35.1501,-43.99366 52.6878,-77.65213 5.0986,-9.78525 9.5513,-17.79467 9.8951,-17.79869 0.969,-0.0113 21.3725,31.64205 29.3385,45.51485 31.6659,55.1469 72.7721,154.59672 109.9582,266.02675 49.1545,147.29312 85.2383,294.09556 79.7332,324.38416 l -1.1263,6.1963 10.4983,15.484 c 69.1132,101.9354 110.9321,256.0726 121.5426,447.984 4.253,76.9261 1.9849,168.3286 -5.6404,227.2855 -1.5631,12.0863 -1.6451,16.6126 -0.4489,24.7935 2.1658,14.8121 0.8168,54.3883 -2.4431,71.671 -14.2626,75.6149 -59.8276,158.8779 -121.9785,222.8965 -26.9825,27.7934 -50.9242,46.7463 -72.5915,57.4653 -16.1235,7.9763 -22.2514,9.6356 -35.5921,9.6369 -10.6374,0 -12.6048,-0.3743 -18.877,-3.6035 -3.8511,-1.9826 -8.1784,-4.5138 -9.6161,-5.625 l -2.6142,-2.0202 4.3412,-17.5 c 5.4535,-21.9849 10.9377,-53.8954 13.8563,-80.625 3.0679,-28.0971 3.0612,-96.3905 -0.013,-126.25 -11.746,-114.1069 -44.7487,-222.9643 -102.6961,-338.737 -56.8946,-113.6695 -131.7498,-220.7623 -228.0877,-326.3166 -7.2428,-7.9358 -19.5705,-21.717 -27.395,-30.625 -81.3655,-92.6338 -204.6143,-192.5327 -324.5238,-263.04183 -20.1801,-11.86632 -35.625,-20.38296 -35.625,-19.64443 0,0.30813 5.4844,4.67325 12.1875,9.70023 58.1718,43.62583 141.8518,114.80363 212.1311,180.43773 31.3584,29.2858 110.58,108.9358 136.24,136.9769 68.7605,75.1409 112.4942,131.8716 134.4255,174.375 4.9665,9.625 12.3455,23.7402 16.3979,31.3672 4.0524,7.627 7.368,14.421 7.368,15.0978 0,0.6767 5.7268,10.749 12.7261,22.3827 63.5994,105.7097 118.4394,298.1354 134.0969,470.5273 5.003,55.0837 6.3943,128.3625 3.2988,173.75 -7.2798,106.7385 -29.3169,196.5172 -67.0412,273.125 -18.4931,37.5544 -42.8458,75.5632 -52.2327,81.5226 -17.0976,10.8549 -42.368,17.585 -70.2229,18.7021 -27.8912,1.1185 -45.8154,-1.0333 -105.625,-12.6807 -69.3359,-13.5026 -96.6861,-12.3654 -118.125,4.9119 -16.1631,13.0256 -62.2575,31.4918 -110.625,44.3186 -32.6595,8.661 -73.2611,15.791 -111.25,19.5364 -24.1232,2.3783 -94.822,3.4271 -119.375,1.771 z m 118.0559,-33.0389 c 56.9571,-5.7911 113.4288,-18.5161 160.0691,-36.0689 27.1224,-10.2073 36.2267,-14.544 43.125,-20.5413 8.0326,-6.9837 23.5374,-14.6297 36.25,-17.8762 24.4805,-6.2517 50.9681,-4.5096 114.0094,7.4988 51.1197,9.7375 68.4911,11.8117 91.6156,10.9392 26.3065,-0.9926 48.0981,-7.167 56.25,-15.9378 6.8224,-7.3404 25.6588,-38.3878 37.6213,-62.01 60.591,-119.6478 81.2501,-280.9243 59.7796,-466.6718 -18.4468,-159.5886 -69.5438,-330.826 -128.7042,-431.3162 -4.6758,-7.9427 -10.6887,-19.514 -13.3618,-25.7143 -5.9444,-13.7881 -27.1444,-50.7809 -40.6814,-70.9867 -72.1418,-107.6811 -250.959,-287.7935 -415.7249,-418.7362 -73.1223,-58.11174 -129.9911,-97.83924 -202.0536,-141.15105 -37.562,-22.5759 -46.7661,-26.96301 -71.4054,-34.03477 -62.7699,-18.01573 -138.3751,-24.54826 -201.7196,-17.42918 -124.985,14.04662 -245.1059,70.06216 -358.75,167.2946 -20.00634,17.1172 -76.12943,74.057 -94.44937,95.8238 -95.54898,113.5264 -161.80112,240.3215 -194.30965,371.875 -14.0755,56.9599 -19.95475,103.2889 -19.97808,157.4293 -0.0602,139.8493 41.93011,285.0965 120.35669,416.3207 86.8554,145.3275 221.07418,276.8166 380.88041,373.1345 118.3349,71.3222 241.2484,118.2966 348.125,133.0445 7.5625,1.0435 23.875,4.1256 36.25,6.8492 41.8318,9.2068 87.9799,16.1254 125.625,18.8342 9.9688,0.7173 20.9375,1.5137 24.375,1.7697 15.0065,1.1178 88.6741,-0.4956 106.8059,-2.3391 z m 903.0529,-809.418 c 10.4181,-112.3386 5.6495,-240.7945 -13.1058,-353.0402 -21.338,-127.7024 -59.133,-227.9629 -112.4156,-298.2098 -3.911,-5.1562 -8.8093,-11.0625 -10.8849,-13.125 -4.1894,-4.1627 -17.1055,-23.3014 -28.7539,-42.6064 -20.7153,-34.3321 -49.772,-91.6723 -92.1092,-181.7686 -48.614,-103.45361 -75.1541,-155.16789 -98.1509,-191.25 -16.7766,-26.32281 -36.1331,-50.63335 -48.6776,-61.13625 l -6.2276,-5.21403 -13.9095,6.97591 c -84.8007,42.52912 -186.7072,20.14264 -268.8597,-59.06214 -39.3777,-37.96478 -70.4227,-83.98414 -93.453,-138.52912 -11.5618,-27.383 -22.8411,-64.15756 -27.7682,-90.53437 -0.8348,-4.46875 -1.9844,-8.96875 -2.5548,-10 -1.7032,-3.07939 -1.274,16.03966 0.8045,35.83157 6.5444,62.3183 28.6468,151.16867 63.9312,256.99945 13.5397,40.61059 16.108,47.27997 18.3825,47.73524 64.1353,12.83805 132.0336,54.52175 213.3414,130.97355 113.8248,107.02663 239.2628,280.09399 315.5278,435.33519 39.7777,80.9695 54.0551,121.5514 73.675,209.4121 20.539,91.977 58.2249,201.5254 100.6954,292.7088 11.9282,25.6098 26.4662,52.5997 27.638,51.3102 0.4655,-0.5121 1.7591,-10.7749 2.8749,-22.8061 z m -440.9615,-430.3125 c -5.4412,-114.0063 -53.1148,-236.1461 -110.0502,-281.9482 -9.1973,-7.399 -25.3097,-17.3183 -26.3847,-16.2434 -0.2933,0.2933 3.149,11.1861 7.6496,24.2062 22.1443,64.0622 54.337,174.6569 59.9971,206.1134 0.5883,3.2689 2.6577,6.864 6.1157,10.625 9.1678,9.9711 34.5698,40.1188 48.7635,57.874 7.5561,9.452 13.968,17.1855 14.2487,17.1855 0.2808,0 0.1279,-8.0156 -0.3397,-17.8125 z M 1760.0445,913.125 c -4.3939,-75.14089 -17.0708,-184.30719 -31.2809,-269.375 -9.0783,-54.34668 -21.1557,-107.6168 -28.19,-124.3387 l -2.088,-4.9637 -15.6807,16.8387 c -23.1943,24.90708 -60.2983,61.53512 -75.7149,74.74361 -26.7435,22.91313 -42.8389,33.37116 -59.3166,38.54119 -8.9953,2.82237 -11.002,4.00494 -15.3165,9.02591 -10.3839,12.08401 -20.0371,35.58134 -24.8379,60.45873 -11.1199,57.62162 -0.9609,113.95551 25.1211,139.30233 2.9667,2.88304 16.331,11.51917 29.7599,19.23097 20.9355,12.02267 27.0208,14.87337 43.125,20.20217 26.386,8.731 55.5919,20.46429 83.1335,33.39833 20.7618,9.7501 57.1719,28.59618 68.0789,35.23802 l 3.7876,2.30645 0.4041,-13.4295 c 0.2223,-7.38624 -0.2207,-24.11701 -0.9846,-37.17951 z"
       id="path3440"
       inkscape:connector-curvature="0" />
    <path
       style="fill:#9fc93c"
       d="m 1635.625,2623.7069 c -50.4139,-3.4008 -98.0415,-10.3013 -150.625,-21.8233 -10.6562,-2.335 -26.125,-5.1565 -34.375,-6.2701 -96.1676,-12.9809 -217.8846,-57.8454 -328.125,-120.9459 -202.45268,-115.882 -363.57948,-281.4521 -454.59666,-467.133 -49.95481,-101.9111 -78.32718,-206.1536 -86.76563,-318.7846 -2.10387,-28.0812 -0.77347,-89.7006 2.52245,-116.8305 14.63202,-120.4411 57.89215,-239.9167 128.78205,-355.6695 34.03401,-55.5725 75.20941,-109.1019 125.05779,-162.5792 9.99729,-10.7251 12.3803,-13.8988 10,-13.3179 -1.71875,0.4194 -11.5625,1.7772 -21.875,3.0173 -23.40368,2.8144 -110.58758,3.1725 -138.75,0.5698 -92.88786,-8.5843 -167.74149,-29.0222 -239.79411,-65.47276 C 294.14096,901.09667 172.7579,751.05776 84.471631,530.25397 72.908615,501.3349 72.849774,499.91588 83.090167,496.9389 c 11.195894,-3.25472 14.065639,-2.69492 25.747423,5.0226 37.14097,24.53706 127.37767,59.62138 201.78741,78.45558 110.58705,27.99121 197.49597,30.36132 259.71366,7.08269 8.61068,-3.22166 14.49805,-7.36642 29.84974,-21.01446 60.39565,-53.69324 143.18649,-94.36441 227.9366,-111.97431 81.3743,-16.90846 166.38653,-12.99443 234.3574,10.79001 19.4675,6.81206 45.5997,18.89471 60.0176,27.75005 6.5313,4.01144 17.7813,10.6684 25,14.79325 52.6437,30.08102 97.3346,61.27859 140,97.73043 20.5784,17.5814 49.3801,45.10877 58.5317,55.94202 4.5889,5.43188 14.1657,15.60962 21.282,22.61719 11.5389,11.36267 35.5515,40.75196 37.4267,45.80697 1.0551,2.84437 11.8221,18.91322 12.3316,18.40379 0.5177,-0.51782 -27.5619,-70.27961 -43.6096,-108.34471 -16.1267,-38.25204 -31.6548,-73.0656 -36.7259,-82.33835 -4.6355,-8.47615 -9.8596,-27.52674 -8.7492,-31.9056 1.0771,-4.2482 9.6257,-12.16744 16.5942,-15.3726 24.9346,-11.46869 70.8179,-7.40956 85.1893,7.53641 l 3.8031,3.95514 0.6731,26.875 c 1.4114,56.35087 9.536,110.01519 26.9676,178.125 7.338,28.67176 9.8042,36.84401 9.9562,32.99402 0.8993,-22.76906 4.5662,-49.05968 9.4806,-67.97409 10.7211,-41.2637 33.3577,-72.67704 55.3811,-76.85369 7.9243,-1.50279 11.6358,-3.36369 25.2175,-12.64345 48.1634,-32.9078 157.4031,-152.11956 244.0125,-266.28715 l 11.9591,-15.76438 -1.1944,-6.73562 c -0.6569,-3.7046 -3.9507,-19.41663 -7.3195,-34.9156 -3.3687,-15.49898 -6.7116,-33.35835 -7.4286,-39.6875 -2.3931,-21.12553 1.6521,-41.16193 13.4784,-66.75986 6.6759,-14.44974 11.231,-17.68404 25.7744,-18.3005 16.4282,-0.69635 34.2622,5.32602 53.3507,18.01602 9.6509,6.41589 12.7976,10.22361 12.6375,15.29226 -0.059,1.85325 -4.037,11.52579 -8.8411,21.49454 -10.8364,22.48609 -16.2818,38.0277 -23.4314,66.875 -7.5017,30.26751 -7.7655,34.40364 -3.7224,58.35318 4.6558,27.5784 5.5999,30.13143 17.064,46.14643 84.8304,118.50554 234.3707,207.25887 342.4108,203.22354 9.9687,-0.37234 22.7836,-1.6429 28.4774,-2.82347 l 10.3525,-2.1465 9.8372,-10.39242 c 18.7146,-19.77071 35.1501,-43.99366 52.6878,-77.65213 5.0986,-9.78525 9.5513,-17.79467 9.8951,-17.79869 0.969,-0.0113 21.3725,31.64205 29.3385,45.51485 31.6659,55.1469 72.7721,154.59672 109.9582,266.02675 49.1545,147.29312 85.2383,294.09556 79.7332,324.38416 l -1.1263,6.1963 10.4983,15.484 c 69.1132,101.9354 110.9321,256.0726 121.5426,447.984 4.253,76.9261 1.9849,168.3286 -5.6404,227.2855 -1.5631,12.0863 -1.6451,16.6126 -0.4489,24.7935 2.1658,14.8121 0.8168,54.3883 -2.4431,71.671 -14.2626,75.6149 -59.8276,158.8779 -121.9785,222.8965 -26.9825,27.7934 -50.9242,46.7463 -72.5915,57.4653 -16.1235,7.9763 -22.2514,9.6356 -35.5921,9.6369 -10.6374,0 -12.6048,-0.3743 -18.877,-3.6035 -3.8511,-1.9826 -8.1784,-4.5138 -9.6161,-5.625 l -2.6142,-2.0202 4.3412,-17.5 c 5.4535,-21.9849 10.9377,-53.8954 13.8563,-80.625 3.0679,-28.0971 3.0612,-96.3905 -0.013,-126.25 -11.746,-114.1069 -44.7487,-222.9643 -102.6961,-338.737 -56.8946,-113.6695 -131.7498,-220.7623 -228.0877,-326.3166 -7.2428,-7.9358 -19.5705,-21.717 -27.395,-30.625 -81.3655,-92.6338 -204.6143,-192.5327 -324.5238,-263.04183 -20.1801,-11.86632 -35.625,-20.38296 -35.625,-19.64443 0,0.30813 5.4844,4.67325 12.1875,9.70023 58.1718,43.62583 141.8518,114.80363 212.1311,180.43773 31.3584,29.2858 110.58,108.9358 136.24,136.9769 68.7605,75.1409 112.4942,131.8716 134.4255,174.375 4.9665,9.625 12.3455,23.7402 16.3979,31.3672 4.0524,7.627 7.368,14.421 7.368,15.0978 0,0.6767 5.7268,10.749 12.7261,22.3827 63.5994,105.7097 118.4394,298.1354 134.0969,470.5273 5.003,55.0837 6.3943,128.3625 3.2988,173.75 -7.2798,106.7385 -29.3169,196.5172 -67.0412,273.125 -18.4931,37.5544 -42.8458,75.5632 -52.2327,81.5226 -17.0976,10.8549 -42.368,17.585 -70.2229,18.7021 -27.8912,1.1185 -45.8154,-1.0333 -105.625,-12.6807 -69.3359,-13.5026 -96.6861,-12.3654 -118.125,4.9119 -16.1631,13.0256 -62.2575,31.4918 -110.625,44.3186 -32.6595,8.661 -73.2611,15.791 -111.25,19.5364 -24.1232,2.3783 -94.822,3.4271 -119.375,1.771 z m 118.0559,-33.0389 c 56.9571,-5.7911 113.4288,-18.5161 160.0691,-36.0689 27.1224,-10.2073 36.2267,-14.544 43.125,-20.5413 8.0326,-6.9837 23.5374,-14.6297 36.25,-17.8762 24.4805,-6.2517 50.9681,-4.5096 114.0094,7.4988 51.1197,9.7375 68.4911,11.8117 91.6156,10.9392 26.3065,-0.9926 48.0981,-7.167 56.25,-15.9378 6.8224,-7.3404 25.6588,-38.3878 37.6213,-62.01 60.591,-119.6478 81.2501,-280.9243 59.7796,-466.6718 -18.4468,-159.5886 -69.5438,-330.826 -128.7042,-431.3162 -4.6758,-7.9427 -10.6887,-19.514 -13.3618,-25.7143 -5.9444,-13.7881 -27.1444,-50.7809 -40.6814,-70.9867 -72.1418,-107.6811 -250.959,-287.7935 -415.7249,-418.7362 -73.1223,-58.11174 -129.9911,-97.83924 -202.0536,-141.15105 -37.562,-22.5759 -46.7661,-26.96301 -71.4054,-34.03477 -62.7699,-18.01573 -138.3751,-24.54826 -201.7196,-17.42918 -124.985,14.04662 -245.1059,70.06216 -358.75,167.2946 -20.00634,17.1172 -76.12943,74.057 -94.44937,95.8238 -95.54898,113.5264 -161.80112,240.3215 -194.30965,371.875 -14.0755,56.9599 -19.95475,103.2889 -19.97808,157.4293 -0.0602,139.8493 41.93011,285.0965 120.35669,416.3207 86.8554,145.3275 221.07418,276.8166 380.88041,373.1345 118.3349,71.3222 241.2484,118.2966 348.125,133.0445 7.5625,1.0435 23.875,4.1256 36.25,6.8492 41.8318,9.2068 87.9799,16.1254 125.625,18.8342 9.9688,0.7173 20.9375,1.5137 24.375,1.7697 15.0065,1.1178 88.6741,-0.4956 106.8059,-2.3391 z m 718.65,-435.3129 c 10.5472,-4.9896 26.9761,-16.4731 42.0441,-29.3881 57.1579,-48.9908 111.4765,-132.3519 130.5856,-200.4054 6.968,-24.8151 9.0598,-38.2645 9.7193,-62.4888 l 0.6139,-22.5523 -6.3883,-8.44 c -9.4849,-12.5314 -18.7895,-28.9675 -33.9342,-59.9437 -45.36,-92.7767 -88.034,-216.3469 -110.5999,-320.2618 -3.1353,-14.4375 -7.6181,-33.5625 -9.9621,-42.5 -35.5178,-135.428 -157.8513,-344.2596 -290.8675,-496.53019 -96.7964,-110.80773 -187.4799,-181.507 -262.6508,-204.76935 -6.0412,-1.86951 -11.2842,-3.0989 -11.6511,-2.73197 -0.8886,0.88859 25.504,67.13747 38.2691,96.06031 5.576,12.63416 14,30.00245 18.72,38.5962 25.8345,47.03779 51.454,103.70355 75.7291,167.4997 4.3164,11.3436 8.5947,21.0352 9.5074,21.537 0.9128,0.5017 6.2115,2.618 11.7751,4.7027 12.4465,4.6639 29.269,15.6439 41.9278,27.3662 51.754,47.9258 94.3739,149.7289 106.8161,255.1444 2.2074,18.7025 3.0944,62.0115 1.4335,70 -0.8609,4.1406 -0.1292,5.4468 13.6534,24.375 44.1015,60.5669 85.6822,128.8284 118.4014,194.375 86.7792,173.8458 122.2087,344.3699 103.2348,496.875 -2.2226,17.8648 -7.6553,49.8575 -9.5278,56.1078 -0.6134,2.0477 -0.2415,2.241 2.8291,1.4703 1.9444,-0.488 6.5894,-2.3321 10.322,-4.098 z M 2656.7338,1781.25 c 10.4181,-112.3386 5.6495,-240.7945 -13.1058,-353.0402 -21.338,-127.7024 -59.133,-227.9629 -112.4156,-298.2098 -3.911,-5.1562 -8.8093,-11.0625 -10.8849,-13.125 -4.1894,-4.1627 -17.1055,-23.3014 -28.7539,-42.6064 -20.7153,-34.3321 -49.772,-91.6723 -92.1092,-181.7686 -48.614,-103.45361 -75.1541,-155.16789 -98.1509,-191.25 -16.7766,-26.32281 -36.1331,-50.63335 -48.6776,-61.13625 l -6.2276,-5.21403 -13.9095,6.97591 c -84.8007,42.52912 -186.7072,20.14264 -268.8597,-59.06214 -39.3777,-37.96478 -70.4227,-83.98414 -93.453,-138.52912 -11.5618,-27.383 -22.8411,-64.15756 -27.7682,-90.53437 -0.8348,-4.46875 -1.9844,-8.96875 -2.5548,-10 -1.7032,-3.07939 -1.274,16.03966 0.8045,35.83157 6.5444,62.3183 28.6468,151.16867 63.9312,256.99945 13.5397,40.61059 16.108,47.27997 18.3825,47.73524 64.1353,12.83805 132.0336,54.52175 213.3414,130.97355 113.8248,107.02663 239.2628,280.09399 315.5278,435.33519 39.7777,80.9695 54.0551,121.5514 73.675,209.4121 20.539,91.977 58.2249,201.5254 100.6954,292.7088 11.9282,25.6098 26.4662,52.5997 27.638,51.3102 0.4655,-0.5121 1.7591,-10.7749 2.8749,-22.8061 z m -440.9615,-430.3125 c -5.4412,-114.0063 -53.1148,-236.1461 -110.0502,-281.9482 -9.1973,-7.399 -25.3097,-17.3183 -26.3847,-16.2434 -0.2933,0.2933 3.149,11.1861 7.6496,24.2062 22.1443,64.0622 54.337,174.6569 59.9971,206.1134 0.5883,3.2689 2.6577,6.864 6.1157,10.625 9.1678,9.9711 34.5698,40.1188 48.7635,57.874 7.5561,9.452 13.968,17.1855 14.2487,17.1855 0.2808,0 0.1279,-8.0156 -0.3397,-17.8125 z m -93.89,-93.75 c -0.2967,-0.8594 -3.98,-14.2187 -8.1853,-29.6875 -39.0954,-143.8116 -95.3864,-291.90266 -143.6931,-378.02946 -29.9926,-53.47448 -83.2304,-196.63628 -114.3859,-307.59554 -17.6994,-63.03576 -34.368,-144.93586 -34.368,-168.86468 0,-2.34317 -0.4219,-4.22565 -0.9375,-4.18327 -0.5156,0.0424 -11.7339,13.68301 -24.9295,30.3125 -20.172,25.4214 -50.4226,61.7446 -77.0369,92.50155 l -6.0289,6.96729 4.3937,11.00831 c 14.9073,37.35073 31.2886,121.68884 45.7192,235.3833 10.3829,81.80346 16.2233,148.26956 17.2186,195.95641 l 0.7115,34.08143 7.6324,4.55976 c 71.1854,42.5279 155.2646,105.2443 225.1324,167.9308 26.3517,23.6432 72.229,69.7254 92.3714,92.7841 8.8581,10.1406 16.29,18.4375 16.5153,18.4375 0.2254,0 0.1672,-0.7031 -0.1295,-1.5625 z m 406.8611,-167.5 c -0.017,-10.2464 -8.6954,-53.9686 -18.8715,-95.07353 -31.1282,-125.7372 -83.8412,-283.01158 -129.4969,-386.36638 -9.3157,-21.08884 -27.7521,-58.86599 -33.7547,-69.16546 l -3.0848,-5.29288 -9.3811,14.0409 c -18.0131,26.96085 -39.35,50.89251 -59.7953,67.0668 -5.4912,4.34417 -10.2046,8.09935 -10.474,8.34482 -0.2695,0.24549 4.6185,5.78984 10.8621,12.3208 37.4421,39.16496 70.0437,96.31239 140.1607,245.68743 47.2189,100.59355 75.6431,156.1674 99.4169,194.375 12.1848,19.5827 14.4312,21.7736 14.4186,14.0625 z M 1760.0445,913.125 c -4.3939,-75.14089 -17.0708,-184.30719 -31.2809,-269.375 -9.0783,-54.34668 -21.1557,-107.6168 -28.19,-124.3387 l -2.088,-4.9637 -15.6807,16.8387 c -23.1943,24.90708 -60.2983,61.53512 -75.7149,74.74361 -26.7435,22.91313 -42.8389,33.37116 -59.3166,38.54119 -8.9953,2.82237 -11.002,4.00494 -15.3165,9.02591 -10.3839,12.08401 -20.0371,35.58134 -24.8379,60.45873 -11.1199,57.62162 -0.9609,113.95551 25.1211,139.30233 2.9667,2.88304 16.331,11.51917 29.7599,19.23097 20.9355,12.02267 27.0208,14.87337 43.125,20.20217 26.386,8.731 55.5919,20.46429 83.1335,33.39833 20.7618,9.7501 57.1719,28.59618 68.0789,35.23802 l 3.7876,2.30645 0.4041,-13.4295 c 0.2223,-7.38624 -0.2207,-24.11701 -0.9846,-37.17951 z M 2173.125,629.20522 c 20.1101,-3.72936 37.7214,-10.28075 55.8284,-20.76808 l 9.1716,-5.31214 -20.625,-0.86131 c -32.1149,-1.34114 -61.9745,-7.40482 -94.3138,-19.15254 -59.5406,-21.62908 -117.2663,-56.68191 -170.4505,-103.50279 -12.8495,-11.31208 -41.6343,-40.21845 -52.5117,-52.73336 l -6.5186,-7.5 5.0892,12.34189 c 33.4223,81.05098 91.6889,147.11482 157.7703,178.88272 40.562,19.49974 78.8137,25.60558 116.5601,18.60562 z"
       id="path3438"
       inkscape:connector-curvature="0" />
    <path
       style="fill:#6ba646"
       d="m 1635.625,2623.7069 c -50.4139,-3.4008 -98.0415,-10.3013 -150.625,-21.8233 -10.6562,-2.335 -26.125,-5.1565 -34.375,-6.2701 -96.1676,-12.9809 -217.8846,-57.8454 -328.125,-120.9459 -202.45268,-115.882 -363.57948,-281.4521 -454.59666,-467.133 -49.95481,-101.9111 -78.32718,-206.1536 -86.76563,-318.7846 -2.10387,-28.0812 -0.77347,-89.7006 2.52245,-116.8305 14.63202,-120.4411 57.89215,-239.9167 128.78205,-355.6695 34.03401,-55.5725 75.20941,-109.1019 125.05779,-162.5792 9.99729,-10.7251 12.3803,-13.8988 10,-13.3179 -1.71875,0.4194 -11.5625,1.7772 -21.875,3.0173 -23.40368,2.8144 -110.58758,3.1725 -138.75,0.5698 -92.88786,-8.5843 -167.74149,-29.0222 -239.79411,-65.47276 C 294.14096,901.09667 172.7579,751.05776 84.471631,530.25397 72.908615,501.3349 72.849774,499.91588 83.090167,496.9389 c 11.195894,-3.25472 14.065639,-2.69492 25.747423,5.0226 37.14097,24.53706 127.37767,59.62138 201.78741,78.45558 110.58705,27.99121 197.49597,30.36132 259.71366,7.08269 8.61068,-3.22166 14.49805,-7.36642 29.84974,-21.01446 60.39565,-53.69324 143.18649,-94.36441 227.9366,-111.97431 81.3743,-16.90846 166.38653,-12.99443 234.3574,10.79001 19.4675,6.81206 45.5997,18.89471 60.0176,27.75005 6.5313,4.01144 17.7813,10.6684 25,14.79325 52.6437,30.08102 97.3346,61.27859 140,97.73043 20.5784,17.5814 49.3801,45.10877 58.5317,55.94202 4.5889,5.43188 14.1657,15.60962 21.282,22.61719 11.5389,11.36267 35.5515,40.75196 37.4267,45.80697 1.0551,2.84437 11.8221,18.91322 12.3316,18.40379 0.5177,-0.51782 -27.5619,-70.27961 -43.6096,-108.34471 -16.1267,-38.25204 -31.6548,-73.0656 -36.7259,-82.33835 -4.6355,-8.47615 -9.8596,-27.52674 -8.7492,-31.9056 1.0771,-4.2482 9.6257,-12.16744 16.5942,-15.3726 24.9346,-11.46869 70.8179,-7.40956 85.1893,7.53641 l 3.8031,3.95514 0.6731,26.875 c 1.4114,56.35087 9.536,110.01519 26.9676,178.125 7.338,28.67176 9.8042,36.84401 9.9562,32.99402 0.8993,-22.76906 4.5662,-49.05968 9.4806,-67.97409 10.7211,-41.2637 33.3577,-72.67704 55.3811,-76.85369 7.9243,-1.50279 11.6358,-3.36369 25.2175,-12.64345 48.1634,-32.9078 157.4031,-152.11956 244.0125,-266.28715 l 11.9591,-15.76438 -1.1944,-6.73562 c -0.6569,-3.7046 -3.9507,-19.41663 -7.3195,-34.9156 -3.3687,-15.49898 -6.7116,-33.35835 -7.4286,-39.6875 -2.3931,-21.12553 1.6521,-41.16193 13.4784,-66.75986 6.6759,-14.44974 11.231,-17.68404 25.7744,-18.3005 16.4282,-0.69635 34.2622,5.32602 53.3507,18.01602 9.6509,6.41589 12.7976,10.22361 12.6375,15.29226 -0.059,1.85325 -4.037,11.52579 -8.8411,21.49454 -10.8364,22.48609 -16.2818,38.0277 -23.4314,66.875 -7.5017,30.26751 -7.7655,34.40364 -3.7224,58.35318 4.6558,27.5784 5.5999,30.13143 17.064,46.14643 84.8304,118.50554 234.3707,207.25887 342.4108,203.22354 9.9687,-0.37234 22.7836,-1.6429 28.4774,-2.82347 l 10.3525,-2.1465 9.8372,-10.39242 c 18.7146,-19.77071 35.1501,-43.99366 52.6878,-77.65213 5.0986,-9.78525 9.5513,-17.79467 9.8951,-17.79869 0.969,-0.0113 21.3725,31.64205 29.3385,45.51485 31.6659,55.1469 72.7721,154.59672 109.9582,266.02675 49.1545,147.29312 85.2383,294.09556 79.7332,324.38416 l -1.1263,6.1963 10.4983,15.484 c 69.1132,101.9354 110.9321,256.0726 121.5426,447.984 4.253,76.9261 1.9849,168.3286 -5.6404,227.2855 -1.5631,12.0863 -1.6451,16.6126 -0.4489,24.7935 2.1658,14.8121 0.8168,54.3883 -2.4431,71.671 -14.2626,75.6149 -59.8276,158.8779 -121.9785,222.8965 -26.9825,27.7934 -50.9242,46.7463 -72.5915,57.4653 -16.1235,7.9763 -22.2514,9.6356 -35.5921,9.6369 -10.6374,0 -12.6048,-0.3743 -18.877,-3.6035 -3.8511,-1.9826 -8.1784,-4.5138 -9.6161,-5.625 l -2.6142,-2.0202 4.3412,-17.5 c 5.4535,-21.9849 10.9377,-53.8954 13.8563,-80.625 3.0679,-28.0971 3.0612,-96.3905 -0.013,-126.25 -11.746,-114.1069 -44.7487,-222.9643 -102.6961,-338.737 -56.8946,-113.6695 -131.7498,-220.7623 -228.0877,-326.3166 -7.2428,-7.9358 -19.5705,-21.717 -27.395,-30.625 -81.3655,-92.6338 -204.6143,-192.5327 -324.5238,-263.04183 -20.1801,-11.86632 -35.625,-20.38296 -35.625,-19.64443 0,0.30813 5.4844,4.67325 12.1875,9.70023 58.1718,43.62583 141.8518,114.80363 212.1311,180.43773 31.3584,29.2858 110.58,108.9358 136.24,136.9769 68.7605,75.1409 112.4942,131.8716 134.4255,174.375 4.9665,9.625 12.3455,23.7402 16.3979,31.3672 4.0524,7.627 7.368,14.421 7.368,15.0978 0,0.6767 5.7268,10.749 12.7261,22.3827 63.5994,105.7097 118.4394,298.1354 134.0969,470.5273 5.003,55.0837 6.3943,128.3625 3.2988,173.75 -7.2798,106.7385 -29.3169,196.5172 -67.0412,273.125 -18.4931,37.5544 -42.8458,75.5632 -52.2327,81.5226 -17.0976,10.8549 -42.368,17.585 -70.2229,18.7021 -27.8912,1.1185 -45.8154,-1.0333 -105.625,-12.6807 -69.3359,-13.5026 -96.6861,-12.3654 -118.125,4.9119 -16.1631,13.0256 -62.2575,31.4918 -110.625,44.3186 -32.6595,8.661 -73.2611,15.791 -111.25,19.5364 -24.1232,2.3783 -94.822,3.4271 -119.375,1.771 z m 118.0559,-33.0389 c 56.9571,-5.7911 113.4288,-18.5161 160.0691,-36.0689 27.1224,-10.2073 36.2267,-14.544 43.125,-20.5413 8.0326,-6.9837 23.5374,-14.6297 36.25,-17.8762 24.4805,-6.2517 50.9681,-4.5096 114.0094,7.4988 51.1197,9.7375 68.4911,11.8117 91.6156,10.9392 26.3065,-0.9926 48.0981,-7.167 56.25,-15.9378 6.8224,-7.3404 25.6588,-38.3878 37.6213,-62.01 60.591,-119.6478 81.2501,-280.9243 59.7796,-466.6718 -18.4468,-159.5886 -69.5438,-330.826 -128.7042,-431.3162 -4.6758,-7.9427 -10.6887,-19.514 -13.3618,-25.7143 -5.9444,-13.7881 -27.1444,-50.7809 -40.6814,-70.9867 -72.1418,-107.6811 -250.959,-287.7935 -415.7249,-418.7362 -73.1223,-58.11174 -129.9911,-97.83924 -202.0536,-141.15105 -37.562,-22.5759 -46.7661,-26.96301 -71.4054,-34.03477 -62.7699,-18.01573 -138.3751,-24.54826 -201.7196,-17.42918 -124.985,14.04662 -245.1059,70.06216 -358.75,167.2946 -20.00634,17.1172 -76.12943,74.057 -94.44937,95.8238 -95.54898,113.5264 -161.80112,240.3215 -194.30965,371.875 -14.0755,56.9599 -19.95475,103.2889 -19.97808,157.4293 -0.0602,139.8493 41.93011,285.0965 120.35669,416.3207 86.8554,145.3275 221.07418,276.8166 380.88041,373.1345 118.3349,71.3222 241.2484,118.2966 348.125,133.0445 7.5625,1.0435 23.875,4.1256 36.25,6.8492 41.8318,9.2068 87.9799,16.1254 125.625,18.8342 9.9688,0.7173 20.9375,1.5137 24.375,1.7697 15.0065,1.1178 88.6741,-0.4956 106.8059,-2.3391 z m 718.65,-435.3129 c 10.5472,-4.9896 26.9761,-16.4731 42.0441,-29.3881 57.1579,-48.9908 111.4765,-132.3519 130.5856,-200.4054 6.968,-24.8151 9.0598,-38.2645 9.7193,-62.4888 l 0.6139,-22.5523 -6.3883,-8.44 c -9.4849,-12.5314 -18.7895,-28.9675 -33.9342,-59.9437 -45.36,-92.7767 -88.034,-216.3469 -110.5999,-320.2618 -3.1353,-14.4375 -7.6181,-33.5625 -9.9621,-42.5 -35.5178,-135.428 -157.8513,-344.2596 -290.8675,-496.53019 -96.7964,-110.80773 -187.4799,-181.507 -262.6508,-204.76935 -6.0412,-1.86951 -11.2842,-3.0989 -11.6511,-2.73197 -0.8886,0.88859 25.504,67.13747 38.2691,96.06031 5.576,12.63416 14,30.00245 18.72,38.5962 25.8345,47.03779 51.454,103.70355 75.7291,167.4997 4.3164,11.3436 8.5947,21.0352 9.5074,21.537 0.9128,0.5017 6.2115,2.618 11.7751,4.7027 12.4465,4.6639 29.269,15.6439 41.9278,27.3662 51.754,47.9258 94.3739,149.7289 106.8161,255.1444 2.2074,18.7025 3.0944,62.0115 1.4335,70 -0.8609,4.1406 -0.1292,5.4468 13.6534,24.375 44.1015,60.5669 85.6822,128.8284 118.4014,194.375 86.7792,173.8458 122.2087,344.3699 103.2348,496.875 -2.2226,17.8648 -7.6553,49.8575 -9.5278,56.1078 -0.6134,2.0477 -0.2415,2.241 2.8291,1.4703 1.9444,-0.488 6.5894,-2.3321 10.322,-4.098 z M 2656.7338,1781.25 c 10.4181,-112.3386 5.6495,-240.7945 -13.1058,-353.0402 -21.338,-127.7024 -59.133,-227.9629 -112.4156,-298.2098 -3.911,-5.1562 -8.8093,-11.0625 -10.8849,-13.125 -4.1894,-4.1627 -17.1055,-23.3014 -28.7539,-42.6064 -20.7153,-34.3321 -49.772,-91.6723 -92.1092,-181.7686 -48.614,-103.45361 -75.1541,-155.16789 -98.1509,-191.25 -16.7766,-26.32281 -36.1331,-50.63335 -48.6776,-61.13625 l -6.2276,-5.21403 -13.9095,6.97591 c -84.8007,42.52912 -186.7072,20.14264 -268.8597,-59.06214 -39.3777,-37.96478 -70.4227,-83.98414 -93.453,-138.52912 -11.5618,-27.383 -22.8411,-64.15756 -27.7682,-90.53437 -0.8348,-4.46875 -1.9844,-8.96875 -2.5548,-10 -1.7032,-3.07939 -1.274,16.03966 0.8045,35.83157 6.5444,62.3183 28.6468,151.16867 63.9312,256.99945 13.5397,40.61059 16.108,47.27997 18.3825,47.73524 64.1353,12.83805 132.0336,54.52175 213.3414,130.97355 113.8248,107.02663 239.2628,280.09399 315.5278,435.33519 39.7777,80.9695 54.0551,121.5514 73.675,209.4121 20.539,91.977 58.2249,201.5254 100.6954,292.7088 11.9282,25.6098 26.4662,52.5997 27.638,51.3102 0.4655,-0.5121 1.7591,-10.7749 2.8749,-22.8061 z m -440.9615,-430.3125 c -5.4412,-114.0063 -53.1148,-236.1461 -110.0502,-281.9482 -9.1973,-7.399 -25.3097,-17.3183 -26.3847,-16.2434 -0.2933,0.2933 3.149,11.1861 7.6496,24.2062 22.1443,64.0622 54.337,174.6569 59.9971,206.1134 0.5883,3.2689 2.6577,6.864 6.1157,10.625 9.1678,9.9711 34.5698,40.1188 48.7635,57.874 7.5561,9.452 13.968,17.1855 14.2487,17.1855 0.2808,0 0.1279,-8.0156 -0.3397,-17.8125 z m -93.89,-93.75 c -0.2967,-0.8594 -3.98,-14.2187 -8.1853,-29.6875 -39.0954,-143.8116 -95.3864,-291.90266 -143.6931,-378.02946 -29.9926,-53.47448 -83.2304,-196.63628 -114.3859,-307.59554 -17.6994,-63.03576 -34.368,-144.93586 -34.368,-168.86468 0,-2.34317 -0.4219,-4.22565 -0.9375,-4.18327 -0.5156,0.0424 -11.7339,13.68301 -24.9295,30.3125 -20.172,25.4214 -50.4226,61.7446 -77.0369,92.50155 l -6.0289,6.96729 4.3937,11.00831 c 14.9073,37.35073 31.2886,121.68884 45.7192,235.3833 10.3829,81.80346 16.2233,148.26956 17.2186,195.95641 l 0.7115,34.08143 7.6324,4.55976 c 71.1854,42.5279 155.2646,105.2443 225.1324,167.9308 26.3517,23.6432 72.229,69.7254 92.3714,92.7841 8.8581,10.1406 16.29,18.4375 16.5153,18.4375 0.2254,0 0.1672,-0.7031 -0.1295,-1.5625 z m 406.8611,-167.5 c -0.017,-10.2464 -8.6954,-53.9686 -18.8715,-95.07353 -31.1282,-125.7372 -83.8412,-283.01158 -129.4969,-386.36638 -9.3157,-21.08884 -27.7521,-58.86599 -33.7547,-69.16546 l -3.0848,-5.29288 -9.3811,14.0409 c -18.0131,26.96085 -39.35,50.89251 -59.7953,67.0668 -5.4912,4.34417 -10.2046,8.09935 -10.474,8.34482 -0.2695,0.24549 4.6185,5.78984 10.8621,12.3208 37.4421,39.16496 70.0437,96.31239 140.1607,245.68743 47.2189,100.59355 75.6431,156.1674 99.4169,194.375 12.1848,19.5827 14.4312,21.7736 14.4186,14.0625 z M 1760.0445,913.125 c -4.3939,-75.14089 -17.0708,-184.30719 -31.2809,-269.375 -9.0783,-54.34668 -21.1557,-107.6168 -28.19,-124.3387 l -2.088,-4.9637 -15.6807,16.8387 c -23.1943,24.90708 -60.2983,61.53512 -75.7149,74.74361 -26.7435,22.91313 -42.8389,33.37116 -59.3166,38.54119 -8.9953,2.82237 -11.002,4.00494 -15.3165,9.02591 -10.3839,12.08401 -20.0371,35.58134 -24.8379,60.45873 -11.1199,57.62162 -0.9609,113.95551 25.1211,139.30233 2.9667,2.88304 16.331,11.51917 29.7599,19.23097 20.9355,12.02267 27.0208,14.87337 43.125,20.20217 26.386,8.731 55.5919,20.46429 83.1335,33.39833 20.7618,9.7501 57.1719,28.59618 68.0789,35.23802 l 3.7876,2.30645 0.4041,-13.4295 c 0.2223,-7.38624 -0.2207,-24.11701 -0.9846,-37.17951 z M 659.375,813.13274 c 109.96279,-13.11682 227.0267,-59.50908 316.62764,-125.4791 24.86006,-18.30357 34.44216,-23.08055 50.27486,-25.0634 38.8144,-4.86102 86.2265,-1.57045 131.2225,9.10727 77.84,18.47173 170.3975,64.87876 251.6489,126.17314 5.3756,4.05527 9.9677,7.17774 10.2046,6.93879 1.0946,-1.10414 -11.1012,-23.41328 -21.0429,-38.49245 -22.5092,-34.14107 -45.0316,-61.57407 -78.9356,-96.14633 -55.1424,-56.22921 -113.6349,-100.7303 -186.25,-141.69895 -5.5,-3.10305 -15.3437,-8.91011 -21.875,-12.9046 -87.6999,-53.63686 -218.0055,-61.39179 -338.125,-20.12295 -60.8185,20.8951 -122.35371,57.2335 -165.36081,97.65056 -9.99831,9.39618 -16.04164,13.02199 -30.88919,18.53259 -57.40784,21.30665 -134.46085,22.22629 -230.07459,2.74598 C 286.6233,602.11283 216.09062,580.09094 162.5,556.83056 c -5.84375,-2.53641 -12.59375,-5.45101 -15,-6.47689 l -4.375,-1.86523 2.56902,2.94327 c 41.75259,47.83513 108.5899,114.75633 136.80598,136.97769 23.03254,18.1391 100.32845,60.91576 148.27747,82.05889 35.65884,15.72376 80.92796,32.33233 85.13084,31.23325 1.25017,-0.32693 7.32284,1.09415 13.49485,3.15793 13.16513,4.40214 32.90312,8.49283 48.72184,10.09759 15.42751,1.56509 61.50961,0.53039 81.25,-1.82432 z m 1513.75,-183.92752 c 20.1101,-3.72936 37.7214,-10.28075 55.8284,-20.76808 l 9.1716,-5.31214 -20.625,-0.86131 c -32.1149,-1.34114 -61.9745,-7.40482 -94.3138,-19.15254 -59.5406,-21.62908 -117.2663,-56.68191 -170.4505,-103.50279 -12.8495,-11.31208 -41.6343,-40.21845 -52.5117,-52.73336 l -6.5186,-7.5 5.0892,12.34189 c 33.4223,81.05098 91.6889,147.11482 157.7703,178.88272 40.562,19.49974 78.8137,25.60558 116.5601,18.60562 z M 1383.75,546.32119 c 7.7431,-2.61147 20.9261,-9.77239 27.3801,-14.87268 l 3.005,-2.37479 -7.38,-2.79621 c -13.851,-5.24797 -42.434,-4.78444 -53.6141,0.86946 -8.2255,4.15974 -8.4484,4.81538 -4.3777,12.87917 2.5102,4.97278 4.7423,7.65887 7.1326,8.58332 5.0789,1.96425 18.519,0.86011 27.8541,-2.28827 z"
       id="path3436"
       inkscape:connector-curvature="0" />
    <path
       style="fill:#000000"
       d="m 1635.625,2623.7069 c -50.4139,-3.4008 -98.0415,-10.3013 -150.625,-21.8233 -10.6562,-2.335 -26.125,-5.1565 -34.375,-6.2701 -96.1676,-12.9809 -217.8846,-57.8454 -328.125,-120.9459 -202.45268,-115.882 -363.57948,-281.4521 -454.59666,-467.133 -49.95481,-101.9111 -78.32718,-206.1536 -86.76563,-318.7846 -2.10387,-28.0812 -0.77347,-89.7006 2.52245,-116.8305 14.63202,-120.4411 57.89215,-239.9167 128.78205,-355.6695 34.03401,-55.5725 75.20941,-109.1019 125.05779,-162.5792 9.99729,-10.7251 12.3803,-13.8988 10,-13.3179 -1.71875,0.4194 -11.5625,1.7772 -21.875,3.0173 -23.40368,2.8144 -110.58758,3.1725 -138.75,0.5698 -92.88786,-8.5843 -167.74149,-29.0222 -239.79411,-65.47276 C 294.14096,901.09667 172.7579,751.05776 84.471631,530.25397 72.908615,501.3349 72.849774,499.91588 83.090167,496.9389 c 11.195894,-3.25472 14.065639,-2.69492 25.747423,5.0226 37.14097,24.53706 127.37767,59.62138 201.78741,78.45558 110.58705,27.99121 197.49597,30.36132 259.71366,7.08269 8.61068,-3.22166 14.49805,-7.36642 29.84974,-21.01446 60.39565,-53.69324 143.18649,-94.36441 227.9366,-111.97431 81.3743,-16.90846 166.38653,-12.99443 234.3574,10.79001 19.4675,6.81206 45.5997,18.89471 60.0176,27.75005 6.5313,4.01144 17.7813,10.6684 25,14.79325 52.6437,30.08102 97.3346,61.27859 140,97.73043 20.5784,17.5814 49.3801,45.10877 58.5317,55.94202 4.5889,5.43188 14.1657,15.60962 21.282,22.61719 11.5389,11.36267 35.5515,40.75196 37.4267,45.80697 1.0551,2.84437 11.8221,18.91322 12.3316,18.40379 0.5177,-0.51782 -27.5619,-70.27961 -43.6096,-108.34471 -16.1267,-38.25204 -31.6548,-73.0656 -36.7259,-82.33835 -4.6355,-8.47615 -9.8596,-27.52674 -8.7492,-31.9056 1.0771,-4.2482 9.6257,-12.16744 16.5942,-15.3726 24.9346,-11.46869 70.8179,-7.40956 85.1893,7.53641 l 3.8031,3.95514 0.6731,26.875 c 1.4114,56.35087 9.536,110.01519 26.9676,178.125 7.338,28.67176 9.8042,36.84401 9.9562,32.99402 0.8993,-22.76906 4.5662,-49.05968 9.4806,-67.97409 10.7211,-41.2637 33.3577,-72.67704 55.3811,-76.85369 7.9243,-1.50279 11.6358,-3.36369 25.2175,-12.64345 48.1634,-32.9078 157.4031,-152.11956 244.0125,-266.28715 l 11.9591,-15.76438 -1.1944,-6.73562 c -0.6569,-3.7046 -3.9507,-19.41663 -7.3195,-34.9156 -3.3687,-15.49898 -6.7116,-33.35835 -7.4286,-39.6875 -2.3931,-21.12553 1.6521,-41.16193 13.4784,-66.75986 6.6759,-14.44974 11.231,-17.68404 25.7744,-18.3005 16.4282,-0.69635 34.2622,5.32602 53.3507,18.01602 9.6509,6.41589 12.7976,10.22361 12.6375,15.29226 -0.059,1.85325 -4.037,11.52579 -8.8411,21.49454 -10.8364,22.48609 -16.2818,38.0277 -23.4314,66.875 -7.5017,30.26751 -7.7655,34.40364 -3.7224,58.35318 4.6558,27.5784 5.5999,30.13143 17.064,46.14643 84.8304,118.50554 234.3707,207.25887 342.4108,203.22354 9.9687,-0.37234 22.7836,-1.6429 28.4774,-2.82347 l 10.3525,-2.1465 9.8372,-10.39242 c 18.7146,-19.77071 35.1501,-43.99366 52.6878,-77.65213 5.0986,-9.78525 9.5513,-17.79467 9.8951,-17.79869 0.969,-0.0113 21.3725,31.64205 29.3385,45.51485 31.6659,55.1469 72.7721,154.59672 109.9582,266.02675 49.1545,147.29312 85.2383,294.09556 79.7332,324.38416 l -1.1263,6.1963 10.4983,15.484 c 69.1132,101.9354 110.9321,256.0726 121.5426,447.984 4.253,76.9261 1.9849,168.3286 -5.6404,227.2855 -1.5631,12.0863 -1.6451,16.6126 -0.4489,24.7935 2.1658,14.8121 0.8168,54.3883 -2.4431,71.671 -14.2626,75.6149 -59.8276,158.8779 -121.9785,222.8965 -26.9825,27.7934 -50.9242,46.7463 -72.5915,57.4653 -16.1235,7.9763 -22.2514,9.6356 -35.5921,9.6369 -10.6374,0 -12.6048,-0.3743 -18.877,-3.6035 -3.8511,-1.9826 -8.1784,-4.5138 -9.6161,-5.625 l -2.6142,-2.0202 4.3412,-17.5 c 5.4535,-21.9849 10.9377,-53.8954 13.8563,-80.625 3.0679,-28.0971 3.0612,-96.3905 -0.013,-126.25 -11.746,-114.1069 -44.7487,-222.9643 -102.6961,-338.737 -56.8946,-113.6695 -131.7498,-220.7623 -228.0877,-326.3166 -7.2428,-7.9358 -19.5705,-21.717 -27.395,-30.625 -81.3655,-92.6338 -204.6143,-192.5327 -324.5238,-263.04183 -20.1801,-11.86632 -35.625,-20.38296 -35.625,-19.64443 0,0.30813 5.4844,4.67325 12.1875,9.70023 58.1718,43.62583 141.8518,114.80363 212.1311,180.43773 31.3584,29.2858 110.58,108.9358 136.24,136.9769 68.7605,75.1409 112.4942,131.8716 134.4255,174.375 4.9665,9.625 12.3455,23.7402 16.3979,31.3672 4.0524,7.627 7.368,14.421 7.368,15.0978 0,0.6767 5.7268,10.749 12.7261,22.3827 63.5994,105.7097 118.4394,298.1354 134.0969,470.5273 5.003,55.0837 6.3943,128.3625 3.2988,173.75 -7.2798,106.7385 -29.3169,196.5172 -67.0412,273.125 -18.4931,37.5544 -42.8458,75.5632 -52.2327,81.5226 -17.0976,10.8549 -42.368,17.585 -70.2229,18.7021 -27.8912,1.1185 -45.8154,-1.0333 -105.625,-12.6807 -69.3359,-13.5026 -96.6861,-12.3654 -118.125,4.9119 -16.1631,13.0256 -62.2575,31.4918 -110.625,44.3186 -32.6595,8.661 -73.2611,15.791 -111.25,19.5364 -24.1232,2.3783 -94.822,3.4271 -119.375,1.771 z m 118.0559,-33.0389 c 56.9571,-5.7911 113.4288,-18.5161 160.0691,-36.0689 27.1224,-10.2073 36.2267,-14.544 43.125,-20.5413 8.0326,-6.9837 23.5374,-14.6297 36.25,-17.8762 24.4805,-6.2517 50.9681,-4.5096 114.0094,7.4988 51.1197,9.7375 68.4911,11.8117 91.6156,10.9392 26.3065,-0.9926 48.0981,-7.167 56.25,-15.9378 6.8224,-7.3404 25.6588,-38.3878 37.6213,-62.01 60.591,-119.6478 81.2501,-280.9243 59.7796,-466.6718 -18.4468,-159.5886 -69.5438,-330.826 -128.7042,-431.3162 -4.6758,-7.9427 -10.6887,-19.514 -13.3618,-25.7143 -5.9444,-13.7881 -27.1444,-50.7809 -40.6814,-70.9867 -72.1418,-107.6811 -250.959,-287.7935 -415.7249,-418.7362 -73.1223,-58.11174 -129.9911,-97.83924 -202.0536,-141.15105 -37.562,-22.5759 -46.7661,-26.96301 -71.4054,-34.03477 -62.7699,-18.01573 -138.3751,-24.54826 -201.7196,-17.42918 -124.985,14.04662 -245.1059,70.06216 -358.75,167.2946 -20.00634,17.1172 -76.12943,74.057 -94.44937,95.8238 -95.54898,113.5264 -161.80112,240.3215 -194.30965,371.875 -14.0755,56.9599 -19.95475,103.2889 -19.97808,157.4293 -0.0602,139.8493 41.93011,285.0965 120.35669,416.3207 86.8554,145.3275 221.07418,276.8166 380.88041,373.1345 118.3349,71.3222 241.2484,118.2966 348.125,133.0445 7.5625,1.0435 23.875,4.1256 36.25,6.8492 41.8318,9.2068 87.9799,16.1254 125.625,18.8342 9.9688,0.7173 20.9375,1.5137 24.375,1.7697 15.0065,1.1178 88.6741,-0.4956 106.8059,-2.3391 z m 718.65,-435.3129 c 10.5472,-4.9896 26.9761,-16.4731 42.0441,-29.3881 57.1579,-48.9908 111.4765,-132.3519 130.5856,-200.4054 6.968,-24.8151 9.0598,-38.2645 9.7193,-62.4888 l 0.6139,-22.5523 -6.3883,-8.44 c -9.4849,-12.5314 -18.7895,-28.9675 -33.9342,-59.9437 -45.36,-92.7767 -88.034,-216.3469 -110.5999,-320.2618 -3.1353,-14.4375 -7.6181,-33.5625 -9.9621,-42.5 -35.5178,-135.428 -157.8513,-344.2596 -290.8675,-496.53019 -96.7964,-110.80773 -187.4799,-181.507 -262.6508,-204.76935 -6.0412,-1.86951 -11.2842,-3.0989 -11.6511,-2.73197 -0.8886,0.88859 25.504,67.13747 38.2691,96.06031 5.576,12.63416 14,30.00245 18.72,38.5962 25.8345,47.03779 51.454,103.70355 75.7291,167.4997 4.3164,11.3436 8.5947,21.0352 9.5074,21.537 0.9128,0.5017 6.2115,2.618 11.7751,4.7027 12.4465,4.6639 29.269,15.6439 41.9278,27.3662 51.754,47.9258 94.3739,149.7289 106.8161,255.1444 2.2074,18.7025 3.0944,62.0115 1.4335,70 -0.8609,4.1406 -0.1292,5.4468 13.6534,24.375 44.1015,60.5669 85.6822,128.8284 118.4014,194.375 86.7792,173.8458 122.2087,344.3699 103.2348,496.875 -2.2226,17.8648 -7.6553,49.8575 -9.5278,56.1078 -0.6134,2.0477 -0.2415,2.241 2.8291,1.4703 1.9444,-0.488 6.5894,-2.3321 10.322,-4.098 z M 2656.7338,1781.25 c 10.4181,-112.3386 5.6495,-240.7945 -13.1058,-353.0402 -21.338,-127.7024 -59.133,-227.9629 -112.4156,-298.2098 -3.911,-5.1562 -8.8093,-11.0625 -10.8849,-13.125 -4.1894,-4.1627 -17.1055,-23.3014 -28.7539,-42.6064 -20.7153,-34.3321 -49.772,-91.6723 -92.1092,-181.7686 -48.614,-103.45361 -75.1541,-155.16789 -98.1509,-191.25 -16.7766,-26.32281 -36.1331,-50.63335 -48.6776,-61.13625 l -6.2276,-5.21403 -13.9095,6.97591 c -84.8007,42.52912 -186.7072,20.14264 -268.8597,-59.06214 -39.3777,-37.96478 -70.4227,-83.98414 -93.453,-138.52912 -11.5618,-27.383 -22.8411,-64.15756 -27.7682,-90.53437 -0.8348,-4.46875 -1.9844,-8.96875 -2.5548,-10 -1.7032,-3.07939 -1.274,16.03966 0.8045,35.83157 6.5444,62.3183 28.6468,151.16867 63.9312,256.99945 13.5397,40.61059 16.108,47.27997 18.3825,47.73524 64.1353,12.83805 132.0336,54.52175 213.3414,130.97355 113.8248,107.02663 239.2628,280.09399 315.5278,435.33519 39.7777,80.9695 54.0551,121.5514 73.675,209.4121 20.539,91.977 58.2249,201.5254 100.6954,292.7088 11.9282,25.6098 26.4662,52.5997 27.638,51.3102 0.4655,-0.5121 1.7591,-10.7749 2.8749,-22.8061 z m -440.9615,-430.3125 c -5.4412,-114.0063 -53.1148,-236.1461 -110.0502,-281.9482 -9.1973,-7.399 -25.3097,-17.3183 -26.3847,-16.2434 -0.2933,0.2933 3.149,11.1861 7.6496,24.2062 22.1443,64.0622 54.337,174.6569 59.9971,206.1134 0.5883,3.2689 2.6577,6.864 6.1157,10.625 9.1678,9.9711 34.5698,40.1188 48.7635,57.874 7.5561,9.452 13.968,17.1855 14.2487,17.1855 0.2808,0 0.1279,-8.0156 -0.3397,-17.8125 z m -93.89,-93.75 c -0.2967,-0.8594 -3.98,-14.2187 -8.1853,-29.6875 -39.0954,-143.8116 -95.3864,-291.90266 -143.6931,-378.02946 -29.9926,-53.47448 -83.2304,-196.63628 -114.3859,-307.59554 -17.6994,-63.03576 -34.368,-144.93586 -34.368,-168.86468 0,-2.34317 -0.4219,-4.22565 -0.9375,-4.18327 -0.5156,0.0424 -11.7339,13.68301 -24.9295,30.3125 -20.172,25.4214 -50.4226,61.7446 -77.0369,92.50155 l -6.0289,6.96729 4.3937,11.00831 c 14.9073,37.35073 31.2886,121.68884 45.7192,235.3833 10.3829,81.80346 16.2233,148.26956 17.2186,195.95641 l 0.7115,34.08143 7.6324,4.55976 c 71.1854,42.5279 155.2646,105.2443 225.1324,167.9308 26.3517,23.6432 72.229,69.7254 92.3714,92.7841 8.8581,10.1406 16.29,18.4375 16.5153,18.4375 0.2254,0 0.1672,-0.7031 -0.1295,-1.5625 z m 406.8611,-167.5 c -0.017,-10.2464 -8.6954,-53.9686 -18.8715,-95.07353 -31.1282,-125.7372 -83.8412,-283.01158 -129.4969,-386.36638 -9.3157,-21.08884 -27.7521,-58.86599 -33.7547,-69.16546 l -3.0848,-5.29288 -9.3811,14.0409 c -18.0131,26.96085 -39.35,50.89251 -59.7953,67.0668 -5.4912,4.34417 -10.2046,8.09935 -10.474,8.34482 -0.2695,0.24549 4.6185,5.78984 10.8621,12.3208 37.4421,39.16496 70.0437,96.31239 140.1607,245.68743 47.2189,100.59355 75.6431,156.1674 99.4169,194.375 12.1848,19.5827 14.4312,21.7736 14.4186,14.0625 z M 829.26316,1018.102 c 13.12401,-1.7313 27.51809,-4.3097 31.98684,-5.7297 11.74185,-3.731 35.1428,-15.67777 42.12548,-21.50609 15.32809,-12.79408 42.33596,-33.95653 55.37452,-43.38962 7.90625,-5.71998 14.65625,-10.77563 15,-11.23478 1.84915,-2.46991 50.0016,-35.34473 68.2063,-46.56605 36.0522,-22.22251 54.6094,-31.0625 102.56,-48.85586 56.4045,-20.93046 118.9547,-31.20181 177.3587,-29.12402 20.4789,0.72856 28.7885,1.57648 68.088,6.94773 9.9484,1.35969 18.2024,2.35768 18.3422,2.21775 0.4973,-0.49725 -34.1991,-25.38488 -50.8897,-36.50307 -108.2244,-72.09209 -216.03,-109.30959 -304.2905,-105.04962 -31.4633,1.51861 -40.6706,4.72066 -64.88597,22.56549 -68.68453,50.61518 -153.14089,90.65001 -238.56413,113.08653 -91.30727,23.98196 -176.62879,26.32132 -229.9874,6.30581 l -7.1875,-2.69612 0,-5.45382 c 0,-6.7454 1.84404,-11.86656 4.27294,-11.86656 1.00915,0 6.7887,1.65376 12.84343,3.67501 50.71209,16.92927 125.49355,14.49477 209.75863,-6.82865 85.01979,-21.51438 169.22314,-60.81516 236.62764,-110.44272 24.86006,-18.30357 34.44216,-23.08055 50.27486,-25.0634 38.8144,-4.86102 86.2265,-1.57045 131.2225,9.10727 77.84,18.47173 170.3975,64.87876 251.6489,126.17314 5.3756,4.05527 9.9677,7.17774 10.2046,6.93879 1.0946,-1.10414 -11.1012,-23.41328 -21.0429,-38.49245 -22.5092,-34.14107 -45.0316,-61.57407 -78.9356,-96.14633 -55.1424,-56.22921 -113.6349,-100.7303 -186.25,-141.69895 -5.5,-3.10305 -15.3437,-8.91011 -21.875,-12.9046 -87.6999,-53.63686 -218.0055,-61.39179 -338.125,-20.12295 -60.8185,20.8951 -122.35371,57.2335 -165.36081,97.65056 -9.99831,9.39618 -16.04164,13.02199 -30.88919,18.53259 -57.40784,21.30665 -134.46085,22.22629 -230.07459,2.74598 -74.20155,-15.1178 -158.56332,-43.4131 -218.53268,-73.29679 -8.1715,-4.072 -14.99486,-7.24565 -15.16302,-7.05256 -0.95479,1.09631 26.7052,61.93127 41.36434,90.97606 72.44401,143.53654 163.70426,249.12054 270.12429,312.52164 60.78614,36.21411 130.64973,61.49066 203.53166,73.63746 46.41532,7.7357 72.3078,9.6651 133.01316,9.9113 40.75898,0.1654 46.15224,-0.07 68.125,-2.9684 z M 1760.0445,913.125 c -4.3939,-75.14089 -17.0708,-184.30719 -31.2809,-269.375 -9.0783,-54.34668 -21.1557,-107.6168 -28.19,-124.3387 l -2.088,-4.9637 -15.6807,16.8387 c -23.1943,24.90708 -60.2983,61.53512 -75.7149,74.74361 -26.7435,22.91313 -42.8389,33.37116 -59.3166,38.54119 -8.9953,2.82237 -11.002,4.00494 -15.3165,9.02591 -10.3839,12.08401 -20.0371,35.58134 -24.8379,60.45873 -11.1199,57.62162 -0.9609,113.95551 25.1211,139.30233 2.9667,2.88304 16.331,11.51917 29.7599,19.23097 20.9355,12.02267 27.0208,14.87337 43.125,20.20217 26.386,8.731 55.5919,20.46429 83.1335,33.39833 20.7618,9.7501 57.1719,28.59618 68.0789,35.23802 l 3.7876,2.30645 0.4041,-13.4295 c 0.2223,-7.38624 -0.2207,-24.11701 -0.9846,-37.17951 z m -285.6851,-81.5625 c -0.4995,-1.20313 -4.5025,-12.50251 -8.8958,-25.10975 -24.7896,-71.13929 -43.2995,-155.90181 -47.95,-219.57775 -2.171,-29.72651 -2.6737,-34.54073 -3.558,-34.06774 -17.1848,9.19309 -36.6727,15.94274 -46.0306,15.94274 -2.2963,0 -4.175,0.30354 -4.175,0.67453 0,0.37098 5.6096,13.55968 12.4658,29.30823 24.4131,56.07699 58.8287,141.39225 81.4421,201.89224 6.4242,17.1875 12.2511,31.66326 12.9487,32.16836 2.4659,1.78539 4.7007,1.05241 3.7528,-1.23086 z M 2173.125,629.20522 c 20.1101,-3.72936 37.7214,-10.28075 55.8284,-20.76808 l 9.1716,-5.31214 -20.625,-0.86131 c -32.1149,-1.34114 -61.9745,-7.40482 -94.3138,-19.15254 -59.5406,-21.62908 -117.2663,-56.68191 -170.4505,-103.50279 -12.8495,-11.31208 -41.6343,-40.21845 -52.5117,-52.73336 l -6.5186,-7.5 5.0892,12.34189 c 33.4223,81.05098 91.6889,147.11482 157.7703,178.88272 40.562,19.49974 78.8137,25.60558 116.5601,18.60562 z M 1383.75,546.32119 c 7.7431,-2.61147 20.9261,-9.77239 27.3801,-14.87268 l 3.005,-2.37479 -7.38,-2.79621 c -13.851,-5.24797 -42.434,-4.78444 -53.6141,0.86946 -8.2255,4.15974 -8.4484,4.81538 -4.3777,12.87917 2.5102,4.97278 4.7423,7.65887 7.1326,8.58332 5.0789,1.96425 18.519,0.86011 27.8541,-2.28827 z"
       id="path3434"
       inkscape:connector-curvature="0" />
  </g>
</svg>
